<svg xmlns="http://www.w3.org/2000/svg" xmlns:xlink="http://www.w3.org/1999/xlink" width="500" zoomAndPan="magnify" viewBox="0 0 375 374.999991" height="500" preserveAspectRatio="xMidYMid meet" version="1.0"><defs><g/></defs><g fill="#003053" fill-opacity="1"><g transform="translate(69.953899, 286.162101)"><g><path d="M 0 -4.5625 C 0 -4.207031 -0.117188 -3.914062 -0.359375 -3.6875 C -0.597656 -3.46875 -0.878906 -3.359375 -1.203125 -3.359375 L -32.40625 -3.359375 C -32.75 -3.359375 -33.03125 -3.46875 -33.25 -3.6875 C -33.476562 -3.914062 -33.59375 -4.207031 -33.59375 -4.5625 L -33.59375 -19.203125 C -33.59375 -21.953125 -33.207031 -24.207031 -32.4375 -25.96875 C -31.675781 -27.726562 -30.582031 -29.03125 -29.15625 -29.875 C -27.738281 -30.726562 -26.050781 -31.15625 -24.09375 -31.15625 C -22.945312 -31.15625 -21.929688 -30.9375 -21.046875 -30.5 C -20.171875 -30.070312 -19.441406 -29.546875 -18.859375 -28.921875 C -18.285156 -28.296875 -17.867188 -27.710938 -17.609375 -27.171875 C -17.035156 -28.378906 -16.09375 -29.457031 -14.78125 -30.40625 C -13.46875 -31.351562 -11.929688 -31.828125 -10.171875 -31.828125 C -8.066406 -31.828125 -6.253906 -31.351562 -4.734375 -30.40625 C -3.210938 -29.457031 -2.039062 -28.078125 -1.21875 -26.265625 C -0.40625 -24.460938 0 -22.25 0 -19.625 Z M -6.234375 -12 L -6.234375 -18.671875 C -6.234375 -20.046875 -6.632812 -21.082031 -7.4375 -21.78125 C -8.238281 -22.488281 -9.148438 -22.84375 -10.171875 -22.84375 C -11.296875 -22.84375 -12.238281 -22.484375 -13 -21.765625 C -13.769531 -21.046875 -14.15625 -20.015625 -14.15625 -18.671875 L -14.15625 -12 Z M -20.25 -12 L -20.25 -18.234375 C -20.25 -19.546875 -20.59375 -20.53125 -21.28125 -21.1875 C -21.96875 -21.84375 -22.828125 -22.171875 -23.859375 -22.171875 C -24.878906 -22.171875 -25.71875 -21.84375 -26.375 -21.1875 C -27.03125 -20.53125 -27.359375 -19.546875 -27.359375 -18.234375 L -27.359375 -12 Z M -20.25 -12 "/></g></g></g><g fill="#003053" fill-opacity="1"><g transform="translate(69.953899, 252.370161)"><g><path d="M 0.484375 -12 C 0.484375 -10.175781 0.0664062 -8.550781 -0.765625 -7.125 C -1.597656 -5.695312 -2.820312 -4.582031 -4.4375 -3.78125 C -6.050781 -2.988281 -8.03125 -2.59375 -10.375 -2.59375 L -23.765625 -2.59375 C -24.109375 -2.59375 -24.390625 -2.703125 -24.609375 -2.921875 C -24.835938 -3.148438 -24.953125 -3.441406 -24.953125 -3.796875 L -24.953125 -9.796875 C -24.953125 -10.140625 -24.835938 -10.429688 -24.609375 -10.671875 C -24.390625 -10.921875 -24.109375 -11.046875 -23.765625 -11.046875 L -10.65625 -11.046875 C -7.519531 -11.046875 -5.953125 -12.4375 -5.953125 -15.21875 C -5.953125 -16.53125 -6.359375 -17.578125 -7.171875 -18.359375 C -7.992188 -19.140625 -9.15625 -19.53125 -10.65625 -19.53125 L -23.765625 -19.53125 C -24.109375 -19.53125 -24.390625 -19.640625 -24.609375 -19.859375 C -24.835938 -20.085938 -24.953125 -20.378906 -24.953125 -20.734375 L -24.953125 -26.734375 C -24.953125 -27.085938 -24.835938 -27.375 -24.609375 -27.59375 C -24.390625 -27.820312 -24.109375 -27.9375 -23.765625 -27.9375 L -1.203125 -27.9375 C -0.878906 -27.9375 -0.597656 -27.820312 -0.359375 -27.59375 C -0.117188 -27.375 0 -27.085938 0 -26.734375 L 0 -21.171875 C 0 -20.847656 -0.117188 -20.566406 -0.359375 -20.328125 C -0.597656 -20.085938 -0.878906 -19.96875 -1.203125 -19.96875 L -3.03125 -19.96875 C -1.875 -19.132812 -1 -18.050781 -0.40625 -16.71875 C 0.1875 -15.394531 0.484375 -13.820312 0.484375 -12 Z M 0.484375 -12 "/></g></g></g><g fill="#003053" fill-opacity="1"><g transform="translate(69.953899, 221.602218)"><g><path d="M 0 -4.03125 C 0 -3.675781 -0.117188 -3.382812 -0.359375 -3.15625 C -0.597656 -2.9375 -0.878906 -2.828125 -1.203125 -2.828125 L -23.765625 -2.828125 C -24.109375 -2.828125 -24.390625 -2.9375 -24.609375 -3.15625 C -24.835938 -3.382812 -24.953125 -3.675781 -24.953125 -4.03125 L -24.953125 -9.703125 C -24.953125 -10.046875 -24.835938 -10.328125 -24.609375 -10.546875 C -24.390625 -10.773438 -24.109375 -10.890625 -23.765625 -10.890625 L -1.203125 -10.890625 C -0.878906 -10.890625 -0.597656 -10.773438 -0.359375 -10.546875 C -0.117188 -10.328125 0 -10.046875 0 -9.703125 Z M -28.5625 -3.984375 C -28.5625 -3.628906 -28.671875 -3.335938 -28.890625 -3.109375 C -29.117188 -2.890625 -29.410156 -2.78125 -29.765625 -2.78125 L -34.078125 -2.78125 C -34.398438 -2.78125 -34.679688 -2.890625 -34.921875 -3.109375 C -35.160156 -3.335938 -35.28125 -3.628906 -35.28125 -3.984375 L -35.28125 -9.75 C -35.28125 -10.0625 -35.160156 -10.335938 -34.921875 -10.578125 C -34.679688 -10.816406 -34.398438 -10.9375 -34.078125 -10.9375 L -29.765625 -10.9375 C -29.410156 -10.9375 -29.117188 -10.816406 -28.890625 -10.578125 C -28.671875 -10.335938 -28.5625 -10.0625 -28.5625 -9.75 Z M -28.5625 -3.984375 "/></g></g></g><g fill="#003053" fill-opacity="1"><g transform="translate(69.953899, 207.874242)"><g><path d="M 0 -4.03125 C 0 -3.675781 -0.117188 -3.382812 -0.359375 -3.15625 C -0.597656 -2.9375 -0.878906 -2.828125 -1.203125 -2.828125 L -32.875 -2.828125 C -33.226562 -2.828125 -33.515625 -2.9375 -33.734375 -3.15625 C -33.960938 -3.382812 -34.078125 -3.675781 -34.078125 -4.03125 L -34.078125 -9.703125 C -34.078125 -10.046875 -33.960938 -10.328125 -33.734375 -10.546875 C -33.515625 -10.773438 -33.226562 -10.890625 -32.875 -10.890625 L -1.203125 -10.890625 C -0.878906 -10.890625 -0.597656 -10.773438 -0.359375 -10.546875 C -0.117188 -10.328125 0 -10.046875 0 -9.703125 Z M 0 -4.03125 "/></g></g></g><g fill="#003053" fill-opacity="1"><g transform="translate(69.953899, 194.146265)"><g><path d="M 0.484375 -12.140625 C 0.484375 -10.609375 0.234375 -9.222656 -0.265625 -7.984375 C -0.765625 -6.753906 -1.5 -5.695312 -2.46875 -4.8125 C -3.445312 -3.9375 -4.628906 -3.257812 -6.015625 -2.78125 C -7.410156 -2.300781 -9.003906 -2.03125 -10.796875 -1.96875 C -11.441406 -1.9375 -12.007812 -1.921875 -12.5 -1.921875 C -13 -1.921875 -13.566406 -1.9375 -14.203125 -1.96875 C -15.898438 -2.03125 -17.441406 -2.300781 -18.828125 -2.78125 C -20.222656 -3.257812 -21.410156 -3.929688 -22.390625 -4.796875 C -23.367188 -5.660156 -24.117188 -6.71875 -24.640625 -7.96875 C -25.171875 -9.21875 -25.4375 -10.609375 -25.4375 -12.140625 C -25.4375 -13.742188 -25.171875 -15.117188 -24.640625 -16.265625 C -24.117188 -17.421875 -23.441406 -18.398438 -22.609375 -19.203125 L -32.875 -19.203125 C -33.226562 -19.203125 -33.515625 -19.3125 -33.734375 -19.53125 C -33.960938 -19.757812 -34.078125 -20.050781 -34.078125 -20.40625 L -34.078125 -26.25 C -34.078125 -26.570312 -33.960938 -26.851562 -33.734375 -27.09375 C -33.515625 -27.332031 -33.226562 -27.453125 -32.875 -27.453125 L -1.203125 -27.453125 C -0.878906 -27.453125 -0.597656 -27.332031 -0.359375 -27.09375 C -0.117188 -26.851562 0 -26.570312 0 -26.25 L 0 -20.828125 C 0 -20.472656 -0.117188 -20.179688 -0.359375 -19.953125 C -0.597656 -19.734375 -0.878906 -19.625 -1.203125 -19.625 L -2.734375 -19.625 C -1.804688 -18.863281 -1.035156 -17.875 -0.421875 -16.65625 C 0.179688 -15.4375 0.484375 -13.929688 0.484375 -12.140625 Z M -5.953125 -14.78125 C -5.953125 -15.84375 -6.179688 -16.679688 -6.640625 -17.296875 C -7.109375 -17.921875 -7.707031 -18.382812 -8.4375 -18.6875 C -9.175781 -19 -9.976562 -19.171875 -10.84375 -19.203125 C -11.488281 -19.234375 -12.097656 -19.25 -12.671875 -19.25 C -13.242188 -19.25 -13.835938 -19.234375 -14.453125 -19.203125 C -15.242188 -19.171875 -15.984375 -18.992188 -16.671875 -18.671875 C -17.367188 -18.347656 -17.929688 -17.863281 -18.359375 -17.21875 C -18.796875 -16.582031 -19.015625 -15.769531 -19.015625 -14.78125 C -19.015625 -13.726562 -18.785156 -12.890625 -18.328125 -12.265625 C -17.878906 -11.640625 -17.269531 -11.191406 -16.5 -10.921875 C -15.738281 -10.648438 -14.894531 -10.484375 -13.96875 -10.421875 C -12.976562 -10.316406 -11.984375 -10.316406 -10.984375 -10.421875 C -10.054688 -10.484375 -9.207031 -10.648438 -8.4375 -10.921875 C -7.675781 -11.191406 -7.070312 -11.640625 -6.625 -12.265625 C -6.175781 -12.890625 -5.953125 -13.726562 -5.953125 -14.78125 Z M -5.953125 -14.78125 "/></g></g></g><g fill="#003053" fill-opacity="1"><g transform="translate(69.953899, 163.858322)"><g><path d="M 0 -4.03125 C 0 -3.675781 -0.117188 -3.382812 -0.359375 -3.15625 C -0.597656 -2.9375 -0.878906 -2.828125 -1.203125 -2.828125 L -23.765625 -2.828125 C -24.109375 -2.828125 -24.390625 -2.9375 -24.609375 -3.15625 C -24.835938 -3.382812 -24.953125 -3.675781 -24.953125 -4.03125 L -24.953125 -9.703125 C -24.953125 -10.046875 -24.835938 -10.328125 -24.609375 -10.546875 C -24.390625 -10.773438 -24.109375 -10.890625 -23.765625 -10.890625 L -1.203125 -10.890625 C -0.878906 -10.890625 -0.597656 -10.773438 -0.359375 -10.546875 C -0.117188 -10.328125 0 -10.046875 0 -9.703125 Z M -28.5625 -3.984375 C -28.5625 -3.628906 -28.671875 -3.335938 -28.890625 -3.109375 C -29.117188 -2.890625 -29.410156 -2.78125 -29.765625 -2.78125 L -34.078125 -2.78125 C -34.398438 -2.78125 -34.679688 -2.890625 -34.921875 -3.109375 C -35.160156 -3.335938 -35.28125 -3.628906 -35.28125 -3.984375 L -35.28125 -9.75 C -35.28125 -10.0625 -35.160156 -10.335938 -34.921875 -10.578125 C -34.679688 -10.816406 -34.398438 -10.9375 -34.078125 -10.9375 L -29.765625 -10.9375 C -29.410156 -10.9375 -29.117188 -10.816406 -28.890625 -10.578125 C -28.671875 -10.335938 -28.5625 -10.0625 -28.5625 -9.75 Z M -28.5625 -3.984375 "/></g></g></g><g fill="#003053" fill-opacity="1"><g transform="translate(69.953899, 150.130346)"><g><path d="M 0 -4.03125 C 0 -3.675781 -0.117188 -3.382812 -0.359375 -3.15625 C -0.597656 -2.9375 -0.878906 -2.828125 -1.203125 -2.828125 L -23.765625 -2.828125 C -24.109375 -2.828125 -24.390625 -2.9375 -24.609375 -3.15625 C -24.835938 -3.382812 -24.953125 -3.675781 -24.953125 -4.03125 L -24.953125 -9.546875 C -24.953125 -9.898438 -24.835938 -10.195312 -24.609375 -10.4375 C -24.390625 -10.675781 -24.109375 -10.796875 -23.765625 -10.796875 L -21.9375 -10.796875 C -22.925781 -11.597656 -23.753906 -12.671875 -24.421875 -14.015625 C -25.097656 -15.359375 -25.4375 -16.941406 -25.4375 -18.765625 C -25.4375 -20.617188 -25.019531 -22.257812 -24.1875 -23.6875 C -23.351562 -25.113281 -22.132812 -26.234375 -20.53125 -27.046875 C -18.9375 -27.859375 -16.957031 -28.265625 -14.59375 -28.265625 L -1.203125 -28.265625 C -0.878906 -28.265625 -0.597656 -28.148438 -0.359375 -27.921875 C -0.117188 -27.703125 0 -27.421875 0 -27.078125 L 0 -21.03125 C 0 -20.707031 -0.117188 -20.425781 -0.359375 -20.1875 C -0.597656 -19.945312 -0.878906 -19.828125 -1.203125 -19.828125 L -14.296875 -19.828125 C -15.804688 -19.828125 -16.96875 -19.460938 -17.78125 -18.734375 C -18.601562 -18.015625 -19.015625 -16.953125 -19.015625 -15.546875 C -19.015625 -14.234375 -18.601562 -13.1875 -17.78125 -12.40625 C -16.96875 -11.625 -15.804688 -11.234375 -14.296875 -11.234375 L -1.203125 -11.234375 C -0.878906 -11.234375 -0.597656 -11.113281 -0.359375 -10.875 C -0.117188 -10.632812 0 -10.351562 0 -10.03125 Z M 0 -4.03125 "/></g></g></g><g fill="#003053" fill-opacity="1"><g transform="translate(69.953899, 119.266399)"><g><path d="M 10.5625 -15.078125 C 10.5625 -12.609375 10.238281 -10.566406 9.59375 -8.953125 C 8.957031 -7.335938 8.191406 -6.054688 7.296875 -5.109375 C 6.398438 -4.171875 5.507812 -3.492188 4.625 -3.078125 C 3.75 -2.660156 3.054688 -2.4375 2.546875 -2.40625 C 2.191406 -2.375 1.894531 -2.484375 1.65625 -2.734375 C 1.414062 -2.992188 1.296875 -3.296875 1.296875 -3.640625 L 1.296875 -9.75 C 1.296875 -10.0625 1.375 -10.3125 1.53125 -10.5 C 1.695312 -10.695312 1.953125 -10.859375 2.296875 -10.984375 C 2.648438 -11.179688 3.007812 -11.40625 3.375 -11.65625 C 3.75 -11.914062 4.0625 -12.289062 4.3125 -12.78125 C 4.570312 -13.28125 4.703125 -13.960938 4.703125 -14.828125 C 4.703125 -15.785156 4.550781 -16.582031 4.25 -17.21875 C 3.945312 -17.863281 3.453125 -18.347656 2.765625 -18.671875 C 2.078125 -18.992188 1.15625 -19.15625 0 -19.15625 L -3.21875 -19.15625 C -2.414062 -18.414062 -1.765625 -17.46875 -1.265625 -16.3125 C -0.773438 -15.164062 -0.53125 -13.773438 -0.53125 -12.140625 C -0.53125 -10.515625 -0.769531 -9.078125 -1.25 -7.828125 C -1.726562 -6.578125 -2.445312 -5.535156 -3.40625 -4.703125 C -4.363281 -3.867188 -5.53125 -3.21875 -6.90625 -2.75 C -8.28125 -2.289062 -9.863281 -2.015625 -11.65625 -1.921875 C -12.488281 -1.890625 -13.335938 -1.890625 -14.203125 -1.921875 C -15.898438 -2.015625 -17.441406 -2.285156 -18.828125 -2.734375 C -20.222656 -3.179688 -21.410156 -3.828125 -22.390625 -4.671875 C -23.367188 -5.523438 -24.117188 -6.578125 -24.640625 -7.828125 C -25.171875 -9.078125 -25.4375 -10.515625 -25.4375 -12.140625 C -25.4375 -13.867188 -25.109375 -15.347656 -24.453125 -16.578125 C -23.796875 -17.816406 -22.972656 -18.832031 -21.984375 -19.625 L -23.765625 -19.625 C -24.078125 -19.625 -24.351562 -19.734375 -24.59375 -19.953125 C -24.832031 -20.179688 -24.953125 -20.472656 -24.953125 -20.828125 L -24.953125 -26.359375 C -24.953125 -26.703125 -24.832031 -26.992188 -24.59375 -27.234375 C -24.351562 -27.472656 -24.078125 -27.59375 -23.765625 -27.59375 L -0.671875 -27.59375 C 1.753906 -27.59375 3.800781 -27.101562 5.46875 -26.125 C 7.132812 -25.15625 8.398438 -23.734375 9.265625 -21.859375 C 10.128906 -19.992188 10.5625 -17.734375 10.5625 -15.078125 Z M -6.765625 -14.734375 C -6.765625 -15.753906 -6.988281 -16.582031 -7.4375 -17.21875 C -7.882812 -17.863281 -8.457031 -18.335938 -9.15625 -18.640625 C -9.863281 -18.953125 -10.617188 -19.125 -11.421875 -19.15625 C -11.773438 -19.1875 -12.269531 -19.203125 -12.90625 -19.203125 C -13.550781 -19.203125 -14.035156 -19.1875 -14.359375 -19.15625 C -15.179688 -19.125 -15.945312 -18.953125 -16.65625 -18.640625 C -17.363281 -18.335938 -17.929688 -17.863281 -18.359375 -17.21875 C -18.796875 -16.582031 -19.015625 -15.753906 -19.015625 -14.734375 C -19.015625 -13.679688 -18.785156 -12.84375 -18.328125 -12.21875 C -17.878906 -11.59375 -17.269531 -11.144531 -16.5 -10.875 C -15.738281 -10.601562 -14.894531 -10.4375 -13.96875 -10.375 C -13.257812 -10.332031 -12.539062 -10.332031 -11.8125 -10.375 C -10.882812 -10.4375 -10.035156 -10.601562 -9.265625 -10.875 C -8.492188 -11.144531 -7.882812 -11.59375 -7.4375 -12.21875 C -6.988281 -12.84375 -6.765625 -13.679688 -6.765625 -14.734375 Z M -6.765625 -14.734375 "/></g></g></g><g fill="#003053" fill-opacity="1"><g transform="translate(133.703895, 223.384761)"><g><path d="M 0 -12.734375 C 0 -11.023438 -0.328125 -9.632812 -0.984375 -8.5625 C -1.648438 -7.488281 -2.585938 -6.703125 -3.796875 -6.203125 C -5.003906 -5.710938 -6.4375 -5.46875 -8.09375 -5.46875 L -20.234375 -5.46875 L -20.234375 -1.890625 C -20.234375 -1.578125 -20.332031 -1.320312 -20.53125 -1.125 C -20.738281 -0.925781 -20.992188 -0.828125 -21.296875 -0.828125 L -22.859375 -0.828125 C -23.171875 -0.828125 -23.425781 -0.925781 -23.625 -1.125 C -23.820312 -1.320312 -23.921875 -1.578125 -23.921875 -1.890625 L -23.921875 -5.46875 L -31.609375 -5.46875 C -31.910156 -5.46875 -32.160156 -5.566406 -32.359375 -5.765625 C -32.554688 -5.972656 -32.65625 -6.226562 -32.65625 -6.53125 L -32.65625 -8.6875 C -32.65625 -9 -32.554688 -9.253906 -32.359375 -9.453125 C -32.160156 -9.648438 -31.910156 -9.75 -31.609375 -9.75 L -23.921875 -9.75 L -23.921875 -15.453125 C -23.921875 -15.796875 -23.820312 -16.054688 -23.625 -16.234375 C -23.425781 -16.421875 -23.171875 -16.515625 -22.859375 -16.515625 L -21.296875 -16.515625 C -20.992188 -16.515625 -20.738281 -16.421875 -20.53125 -16.234375 C -20.332031 -16.054688 -20.234375 -15.796875 -20.234375 -15.453125 L -20.234375 -9.75 L -8.421875 -9.75 C -6.972656 -9.75 -5.832031 -9.992188 -5 -10.484375 C -4.175781 -10.972656 -3.765625 -11.847656 -3.765625 -13.109375 L -3.765625 -15.921875 C -3.765625 -16.222656 -3.664062 -16.472656 -3.46875 -16.671875 C -3.269531 -16.867188 -3.019531 -16.96875 -2.71875 -16.96875 L -1.0625 -16.96875 C -0.75 -16.96875 -0.492188 -16.867188 -0.296875 -16.671875 C -0.0976562 -16.472656 0 -16.222656 0 -15.921875 Z M 0 -12.734375 "/></g></g></g><g fill="#003053" fill-opacity="1"><g transform="translate(133.703895, 205.40028)"><g><path d="M 0 -4.515625 C 0 -4.203125 -0.0976562 -3.945312 -0.296875 -3.75 C -0.492188 -3.550781 -0.75 -3.453125 -1.0625 -3.453125 L -31.609375 -3.453125 C -31.910156 -3.453125 -32.160156 -3.550781 -32.359375 -3.75 C -32.554688 -3.945312 -32.65625 -4.203125 -32.65625 -4.515625 L -32.65625 -6.8125 C -32.65625 -7.144531 -32.554688 -7.398438 -32.359375 -7.578125 C -32.160156 -7.765625 -31.910156 -7.859375 -31.609375 -7.859375 L -20.890625 -7.859375 C -21.929688 -8.691406 -22.769531 -9.707031 -23.40625 -10.90625 C -24.050781 -12.101562 -24.375 -13.617188 -24.375 -15.453125 C -24.375 -17.453125 -23.9375 -19.144531 -23.0625 -20.53125 C -22.195312 -21.925781 -20.988281 -22.984375 -19.4375 -23.703125 C -17.882812 -24.429688 -16.082031 -24.796875 -14.03125 -24.796875 L -1.0625 -24.796875 C -0.75 -24.796875 -0.492188 -24.703125 -0.296875 -24.515625 C -0.0976562 -24.328125 0 -24.066406 0 -23.734375 L 0 -21.4375 C 0 -21.125 -0.0976562 -20.867188 -0.296875 -20.671875 C -0.492188 -20.472656 -0.75 -20.375 -1.0625 -20.375 L -13.796875 -20.375 C -15.941406 -20.375 -17.617188 -19.851562 -18.828125 -18.8125 C -20.046875 -17.769531 -20.65625 -16.238281 -20.65625 -14.21875 C -20.65625 -12.3125 -20.046875 -10.773438 -18.828125 -9.609375 C -17.617188 -8.441406 -15.941406 -7.859375 -13.796875 -7.859375 L -1.0625 -7.859375 C -0.75 -7.859375 -0.492188 -7.765625 -0.296875 -7.578125 C -0.0976562 -7.398438 0 -7.144531 0 -6.8125 Z M 0 -4.515625 "/></g></g></g><g fill="#003053" fill-opacity="1"><g transform="translate(133.703895, 177.388636)"><g><path d="M 0.453125 -12.96875 C 0.453125 -9.78125 -0.515625 -7.25 -2.453125 -5.375 C -4.398438 -3.507812 -7.0625 -2.484375 -10.4375 -2.296875 C -10.84375 -2.265625 -11.359375 -2.25 -11.984375 -2.25 C -12.609375 -2.25 -13.125 -2.265625 -13.53125 -2.296875 C -15.707031 -2.421875 -17.613281 -2.925781 -19.25 -3.8125 C -20.894531 -4.707031 -22.160156 -5.925781 -23.046875 -7.46875 C -23.929688 -9.019531 -24.375 -10.835938 -24.375 -12.921875 C -24.375 -15.253906 -23.882812 -17.207031 -22.90625 -18.78125 C -21.925781 -20.363281 -20.53125 -21.566406 -18.71875 -22.390625 C -16.914062 -23.222656 -14.800781 -23.640625 -12.375 -23.640625 L -11.59375 -23.640625 C -11.257812 -23.640625 -11 -23.539062 -10.8125 -23.34375 C -10.625 -23.144531 -10.53125 -22.894531 -10.53125 -22.59375 L -10.53125 -6.671875 C -10.5 -6.671875 -10.4375 -6.671875 -10.34375 -6.671875 C -10.257812 -6.671875 -10.1875 -6.671875 -10.125 -6.671875 C -8.863281 -6.734375 -7.6875 -7.007812 -6.59375 -7.5 C -5.507812 -7.988281 -4.628906 -8.703125 -3.953125 -9.640625 C -3.273438 -10.578125 -2.9375 -11.671875 -2.9375 -12.921875 C -2.9375 -14.023438 -3.101562 -14.945312 -3.4375 -15.6875 C -3.78125 -16.425781 -4.160156 -17.023438 -4.578125 -17.484375 C -4.992188 -17.941406 -5.320312 -18.25 -5.5625 -18.40625 C -5.9375 -18.675781 -6.160156 -18.890625 -6.234375 -19.046875 C -6.304688 -19.203125 -6.34375 -19.445312 -6.34375 -19.78125 L -6.34375 -22.03125 C -6.34375 -22.3125 -6.257812 -22.550781 -6.09375 -22.75 C -5.925781 -22.945312 -5.6875 -23.03125 -5.375 -23 C -4.914062 -22.96875 -4.359375 -22.722656 -3.703125 -22.265625 C -3.046875 -21.804688 -2.394531 -21.15625 -1.75 -20.3125 C -1.101562 -19.46875 -0.570312 -18.421875 -0.15625 -17.171875 C 0.25 -15.929688 0.453125 -14.53125 0.453125 -12.96875 Z M -13.703125 -6.671875 L -13.703125 -19.28125 L -13.84375 -19.28125 C -15.226562 -19.28125 -16.457031 -19.023438 -17.53125 -18.515625 C -18.601562 -18.003906 -19.453125 -17.273438 -20.078125 -16.328125 C -20.703125 -15.378906 -21.015625 -14.242188 -21.015625 -12.921875 C -21.015625 -11.609375 -20.703125 -10.484375 -20.078125 -9.546875 C -19.453125 -8.609375 -18.601562 -7.894531 -17.53125 -7.40625 C -16.457031 -6.914062 -15.226562 -6.671875 -13.84375 -6.671875 Z M -13.703125 -6.671875 "/></g></g></g><g fill="#003053" fill-opacity="1"><g transform="translate(202.70389, 285.587882)"><g><path d="M 0 -2 C 0 -1.632812 -0.113281 -1.359375 -0.34375 -1.171875 C -0.582031 -0.992188 -0.867188 -0.9375 -1.203125 -1 L -33.75 -7.953125 C -34.113281 -8.015625 -34.410156 -8.175781 -34.640625 -8.4375 C -34.878906 -8.707031 -35 -9.03125 -35 -9.40625 L -35 -31.09375 C -35 -31.46875 -34.878906 -31.738281 -34.640625 -31.90625 C -34.410156 -32.070312 -34.113281 -32.117188 -33.75 -32.046875 L -30.25 -31.296875 C -29.882812 -31.234375 -29.59375 -31.066406 -29.375 -30.796875 C -29.15625 -30.535156 -29.046875 -30.21875 -29.046875 -29.84375 L -29.046875 -13.796875 L -19.546875 -11.75 L -19.546875 -26.796875 C -19.546875 -27.160156 -19.425781 -27.425781 -19.1875 -27.59375 C -18.957031 -27.757812 -18.660156 -27.8125 -18.296875 -27.75 L -14.796875 -27.046875 C -14.460938 -26.984375 -14.175781 -26.804688 -13.9375 -26.515625 C -13.707031 -26.234375 -13.59375 -25.910156 -13.59375 -25.546875 L -13.59375 -10.5 L -1.203125 -7.84375 C -0.867188 -7.78125 -0.582031 -7.613281 -0.34375 -7.34375 C -0.113281 -7.082031 0 -6.769531 0 -6.40625 Z M 0 -2 "/></g></g></g><g fill="#003053" fill-opacity="1"><g transform="translate(202.70389, 255.442544)"><g><path d="M 0.5 -15.15625 C 0.5 -13.019531 0.222656 -11.097656 -0.328125 -9.390625 C -0.878906 -7.691406 -1.71875 -6.300781 -2.84375 -5.21875 C -3.976562 -4.132812 -5.421875 -3.414062 -7.171875 -3.0625 C -8.921875 -2.71875 -11 -2.796875 -13.40625 -3.296875 L -33.75 -7.59375 C -34.113281 -7.664062 -34.410156 -7.84375 -34.640625 -8.125 C -34.878906 -8.40625 -35 -8.710938 -35 -9.046875 L -35 -13.59375 C -35 -13.96875 -34.878906 -14.238281 -34.640625 -14.40625 C -34.410156 -14.570312 -34.113281 -14.617188 -33.75 -14.546875 L -13.40625 -10.203125 C -10.664062 -9.628906 -8.632812 -9.757812 -7.3125 -10.59375 C -6 -11.425781 -5.34375 -13.09375 -5.34375 -15.59375 C -5.34375 -18 -6 -19.984375 -7.3125 -21.546875 C -8.632812 -23.117188 -10.664062 -24.1875 -13.40625 -24.75 L -33.75 -29.09375 C -34.113281 -29.164062 -34.410156 -29.347656 -34.640625 -29.640625 C -34.878906 -29.941406 -35 -30.257812 -35 -30.59375 L -35 -35.09375 C -35 -35.46875 -34.878906 -35.738281 -34.640625 -35.90625 C -34.410156 -36.070312 -34.113281 -36.117188 -33.75 -36.046875 L -13.40625 -31.75 C -8.601562 -30.71875 -5.082031 -28.867188 -2.84375 -26.203125 C -0.613281 -23.535156 0.5 -19.851562 0.5 -15.15625 Z M 0.5 -15.15625 "/></g></g></g><g fill="#003053" fill-opacity="1"><g transform="translate(202.70389, 219.798057)"><g><path d="M 0 -9.546875 C 0 -9.210938 -0.113281 -8.953125 -0.34375 -8.765625 C -0.582031 -8.585938 -0.867188 -8.53125 -1.203125 -8.59375 L -28.84375 -14.5 L -28.84375 -5.25 C -28.84375 -4.882812 -28.957031 -4.609375 -29.1875 -4.421875 C -29.425781 -4.242188 -29.710938 -4.1875 -30.046875 -4.25 L -33.75 -5.046875 C -34.113281 -5.117188 -34.410156 -5.296875 -34.640625 -5.578125 C -34.878906 -5.859375 -35 -6.164062 -35 -6.5 L -35 -32 C -35 -32.363281 -34.878906 -32.632812 -34.640625 -32.8125 C -34.410156 -33 -34.113281 -33.0625 -33.75 -33 L -30.046875 -32.203125 C -29.710938 -32.128906 -29.425781 -31.957031 -29.1875 -31.6875 C -28.957031 -31.425781 -28.84375 -31.113281 -28.84375 -30.75 L -28.84375 -21.5 L -1.203125 -15.59375 C -0.867188 -15.53125 -0.582031 -15.363281 -0.34375 -15.09375 C -0.113281 -14.832031 0 -14.519531 0 -14.15625 Z M 0 -9.546875 "/></g></g></g><g fill="#003053" fill-opacity="1"><g transform="translate(202.70389, 189.752705)"><g><path d="M 0.5 -15.15625 C 0.5 -13.019531 0.222656 -11.097656 -0.328125 -9.390625 C -0.878906 -7.691406 -1.71875 -6.300781 -2.84375 -5.21875 C -3.976562 -4.132812 -5.421875 -3.414062 -7.171875 -3.0625 C -8.921875 -2.71875 -11 -2.796875 -13.40625 -3.296875 L -33.75 -7.59375 C -34.113281 -7.664062 -34.410156 -7.84375 -34.640625 -8.125 C -34.878906 -8.40625 -35 -8.710938 -35 -9.046875 L -35 -13.59375 C -35 -13.96875 -34.878906 -14.238281 -34.640625 -14.40625 C -34.410156 -14.570312 -34.113281 -14.617188 -33.75 -14.546875 L -13.40625 -10.203125 C -10.664062 -9.628906 -8.632812 -9.757812 -7.3125 -10.59375 C -6 -11.425781 -5.34375 -13.09375 -5.34375 -15.59375 C -5.34375 -18 -6 -19.984375 -7.3125 -21.546875 C -8.632812 -23.117188 -10.664062 -24.1875 -13.40625 -24.75 L -33.75 -29.09375 C -34.113281 -29.164062 -34.410156 -29.347656 -34.640625 -29.640625 C -34.878906 -29.941406 -35 -30.257812 -35 -30.59375 L -35 -35.09375 C -35 -35.46875 -34.878906 -35.738281 -34.640625 -35.90625 C -34.410156 -36.070312 -34.113281 -36.117188 -33.75 -36.046875 L -13.40625 -31.75 C -8.601562 -30.71875 -5.082031 -28.867188 -2.84375 -26.203125 C -0.613281 -23.535156 0.5 -19.851562 0.5 -15.15625 Z M 0.5 -15.15625 "/></g></g></g><g fill="#003053" fill-opacity="1"><g transform="translate(202.70389, 154.108218)"><g><path d="M 0 -2.65625 C 0 -2.320312 -0.113281 -2.070312 -0.34375 -1.90625 C -0.582031 -1.738281 -0.867188 -1.6875 -1.203125 -1.75 L -33.75 -8.65625 C -34.113281 -8.71875 -34.410156 -8.890625 -34.640625 -9.171875 C -34.878906 -9.453125 -35 -9.757812 -35 -10.09375 L -35 -23.046875 C -35 -27.078125 -34.066406 -30.0625 -32.203125 -32 C -30.335938 -33.9375 -27.617188 -34.519531 -24.046875 -33.75 C -21.578125 -33.21875 -19.523438 -32.179688 -17.890625 -30.640625 C -16.265625 -29.109375 -15.082031 -27.226562 -14.34375 -25 L -1.59375 -29.59375 C -1.5 -29.632812 -1.410156 -29.65625 -1.328125 -29.65625 C -1.242188 -29.65625 -1.148438 -29.632812 -1.046875 -29.59375 C -0.742188 -29.5625 -0.492188 -29.410156 -0.296875 -29.140625 C -0.0976562 -28.878906 0 -28.613281 0 -28.34375 L 0 -23.796875 C 0 -23.234375 -0.148438 -22.84375 -0.453125 -22.625 C -0.753906 -22.40625 -1.050781 -22.226562 -1.34375 -22.09375 L -13.203125 -18.203125 L -13.203125 -11.25 L -1.203125 -8.703125 C -0.867188 -8.628906 -0.582031 -8.453125 -0.34375 -8.171875 C -0.113281 -7.890625 0 -7.566406 0 -7.203125 Z M -18.84375 -12.453125 L -18.84375 -19.453125 C -18.84375 -21.484375 -19.300781 -23.097656 -20.21875 -24.296875 C -21.132812 -25.492188 -22.425781 -26.257812 -24.09375 -26.59375 C -25.757812 -26.96875 -27.066406 -26.757812 -28.015625 -25.96875 C -28.972656 -25.1875 -29.453125 -23.765625 -29.453125 -21.703125 L -29.453125 -14.65625 Z M -18.84375 -12.453125 "/></g></g></g><g fill="#003053" fill-opacity="1"><g transform="translate(202.70389, 120.463426)"><g><path d="M 0 -2 C 0 -1.632812 -0.113281 -1.359375 -0.34375 -1.171875 C -0.582031 -0.992188 -0.867188 -0.9375 -1.203125 -1 L -33.75 -7.953125 C -34.113281 -8.015625 -34.410156 -8.175781 -34.640625 -8.4375 C -34.878906 -8.707031 -35 -9.03125 -35 -9.40625 L -35 -31.40625 C -35 -31.769531 -34.878906 -32.035156 -34.640625 -32.203125 C -34.410156 -32.367188 -34.113281 -32.414062 -33.75 -32.34375 L -30.453125 -31.65625 C -30.117188 -31.582031 -29.832031 -31.410156 -29.59375 -31.140625 C -29.363281 -30.878906 -29.25 -30.566406 -29.25 -30.203125 L -29.25 -13.75 L -20.40625 -11.84375 L -20.40625 -27.203125 C -20.40625 -27.566406 -20.296875 -27.832031 -20.078125 -28 C -19.859375 -28.164062 -19.566406 -28.21875 -19.203125 -28.15625 L -16.09375 -27.5 C -15.726562 -27.4375 -15.4375 -27.269531 -15.21875 -27 C -15.007812 -26.726562 -14.90625 -26.410156 -14.90625 -26.046875 L -14.90625 -10.703125 L -5.75 -8.703125 L -5.75 -25.59375 C -5.75 -25.96875 -5.628906 -26.238281 -5.390625 -26.40625 C -5.160156 -26.570312 -4.863281 -26.617188 -4.5 -26.546875 L -1.203125 -25.84375 C -0.867188 -25.78125 -0.582031 -25.613281 -0.34375 -25.34375 C -0.113281 -25.082031 0 -24.769531 0 -24.40625 Z M 0 -2 "/></g></g></g><g fill="#003053" fill-opacity="1"><g transform="translate(266.453886, 230.439448)"><g><path d="M 0 -6.640625 C 0 -6.265625 -0.0859375 -5.988281 -0.265625 -5.8125 C -0.441406 -5.632812 -0.71875 -5.515625 -1.09375 -5.453125 L -21.875 -3.5625 C -22.132812 -3.53125 -22.363281 -3.59375 -22.5625 -3.75 C -22.769531 -3.914062 -22.875 -4.191406 -22.875 -4.578125 L -22.875 -5.328125 C -22.875 -5.617188 -22.816406 -5.828125 -22.703125 -5.953125 C -22.585938 -6.085938 -22.425781 -6.171875 -22.21875 -6.203125 L -3.921875 -7.828125 L -22 -17.34375 C -22.175781 -17.425781 -22.363281 -17.5625 -22.5625 -17.75 C -22.769531 -17.945312 -22.875 -18.234375 -22.875 -18.609375 L -22.875 -19.671875 C -22.875 -20.046875 -22.769531 -20.289062 -22.5625 -20.40625 C -22.363281 -20.53125 -22.175781 -20.609375 -22 -20.640625 L -3.921875 -22.609375 L -22.21875 -31.9375 C -22.332031 -32 -22.46875 -32.101562 -22.625 -32.25 C -22.789062 -32.394531 -22.875 -32.613281 -22.875 -32.90625 L -22.875 -33.96875 C -22.875 -34.375 -22.753906 -34.609375 -22.515625 -34.671875 C -22.285156 -34.734375 -22.007812 -34.691406 -21.6875 -34.546875 L -1.09375 -24.03125 C -0.71875 -23.820312 -0.441406 -23.597656 -0.265625 -23.359375 C -0.0859375 -23.128906 0 -22.804688 0 -22.390625 L 0 -21.5625 C 0 -21.175781 -0.0859375 -20.878906 -0.265625 -20.671875 C -0.441406 -20.472656 -0.71875 -20.34375 -1.09375 -20.28125 L -18.4375 -18.34375 L -1.09375 -9.234375 C -0.71875 -9.035156 -0.441406 -8.800781 -0.265625 -8.53125 C -0.0859375 -8.269531 0 -7.9375 0 -7.53125 Z M 0 -6.640625 "/></g></g></g><g fill="#003053" fill-opacity="1"><g transform="translate(266.453886, 195.861608)"><g><path d="M 0 -1.796875 C 0 -1.503906 -0.0859375 -1.285156 -0.265625 -1.140625 C -0.441406 -0.992188 -0.675781 -0.953125 -0.96875 -1.015625 L -21.90625 -5.453125 C -22.207031 -5.515625 -22.441406 -5.65625 -22.609375 -5.875 C -22.785156 -6.09375 -22.875 -6.347656 -22.875 -6.640625 L -22.875 -7.390625 C -22.875 -7.679688 -22.785156 -7.894531 -22.609375 -8.03125 C -22.441406 -8.164062 -22.207031 -8.203125 -21.90625 -8.140625 L -0.96875 -3.703125 C -0.675781 -3.640625 -0.441406 -3.503906 -0.265625 -3.296875 C -0.0859375 -3.085938 0 -2.835938 0 -2.546875 Z M -27.59375 -7.171875 C -27.59375 -6.878906 -27.675781 -6.664062 -27.84375 -6.53125 C -28.019531 -6.40625 -28.257812 -6.351562 -28.5625 -6.375 L -30.234375 -6.78125 C -30.523438 -6.832031 -30.765625 -6.960938 -30.953125 -7.171875 C -31.140625 -7.378906 -31.234375 -7.628906 -31.234375 -7.921875 L -31.234375 -9.59375 C -31.234375 -9.882812 -31.140625 -10.109375 -30.953125 -10.265625 C -30.765625 -10.429688 -30.523438 -10.484375 -30.234375 -10.421875 L -28.5625 -10.03125 C -28.257812 -10 -28.019531 -9.863281 -27.84375 -9.625 C -27.675781 -9.394531 -27.59375 -9.132812 -27.59375 -8.84375 Z M -27.59375 -7.171875 "/></g></g></g><g fill="#003053" fill-opacity="1"><g transform="translate(266.453886, 186.007364)"><g><path d="M 0 -8.71875 C 0 -6.8125 -0.320312 -5.46875 -0.96875 -4.6875 C -1.613281 -3.90625 -2.492188 -3.492188 -3.609375 -3.453125 C -4.722656 -3.410156 -5.96875 -3.535156 -7.34375 -3.828125 L -20.328125 -6.59375 L -20.328125 -3.171875 C -20.328125 -2.878906 -20.414062 -2.65625 -20.59375 -2.5 C -20.769531 -2.351562 -21.003906 -2.3125 -21.296875 -2.375 L -21.90625 -2.515625 C -22.207031 -2.566406 -22.441406 -2.703125 -22.609375 -2.921875 C -22.785156 -3.140625 -22.875 -3.398438 -22.875 -3.703125 L -22.875 -7.125 L -30.265625 -8.71875 C -30.566406 -8.769531 -30.800781 -8.898438 -30.96875 -9.109375 C -31.144531 -9.316406 -31.234375 -9.566406 -31.234375 -9.859375 L -31.234375 -10.609375 C -31.234375 -10.898438 -31.144531 -11.117188 -30.96875 -11.265625 C -30.800781 -11.410156 -30.566406 -11.453125 -30.265625 -11.390625 L -22.875 -9.8125 L -22.875 -15.265625 C -22.875 -15.554688 -22.785156 -15.769531 -22.609375 -15.90625 C -22.441406 -16.039062 -22.207031 -16.078125 -21.90625 -16.015625 L -21.296875 -15.890625 C -21.003906 -15.828125 -20.769531 -15.691406 -20.59375 -15.484375 C -20.414062 -15.285156 -20.328125 -15.035156 -20.328125 -14.734375 L -20.328125 -9.28125 L -7.53125 -6.5625 C -6.5 -6.351562 -5.609375 -6.210938 -4.859375 -6.140625 C -4.109375 -6.066406 -3.535156 -6.210938 -3.140625 -6.578125 C -2.742188 -6.941406 -2.546875 -7.664062 -2.546875 -8.75 L -2.546875 -11.390625 C -2.546875 -11.691406 -2.457031 -11.90625 -2.28125 -12.03125 C -2.113281 -12.164062 -1.878906 -12.203125 -1.578125 -12.140625 L -0.96875 -12.015625 C -0.675781 -11.953125 -0.441406 -11.816406 -0.265625 -11.609375 C -0.0859375 -11.410156 0 -11.164062 0 -10.875 Z M 0 -8.71875 "/></g></g></g><g fill="#003053" fill-opacity="1"><g transform="translate(266.453886, 170.566116)"><g><path d="M 0 -1.796875 C 0 -1.503906 -0.0859375 -1.285156 -0.265625 -1.140625 C -0.441406 -0.992188 -0.675781 -0.953125 -0.96875 -1.015625 L -30.265625 -7.265625 C -30.566406 -7.316406 -30.800781 -7.445312 -30.96875 -7.65625 C -31.144531 -7.863281 -31.234375 -8.113281 -31.234375 -8.40625 L -31.234375 -9.15625 C -31.234375 -9.445312 -31.144531 -9.664062 -30.96875 -9.8125 C -30.800781 -9.957031 -30.566406 -10 -30.265625 -9.9375 L -19.84375 -7.703125 C -20.875 -8.609375 -21.707031 -9.65625 -22.34375 -10.84375 C -22.988281 -12.03125 -23.3125 -13.535156 -23.3125 -15.359375 C -23.3125 -17.441406 -22.878906 -19.085938 -22.015625 -20.296875 C -21.148438 -21.515625 -19.976562 -22.328125 -18.5 -22.734375 C -17.019531 -23.148438 -15.34375 -23.15625 -13.46875 -22.75 L -0.96875 -20.0625 C -0.675781 -20 -0.441406 -19.863281 -0.265625 -19.65625 C -0.0859375 -19.457031 0 -19.210938 0 -18.921875 L 0 -18.171875 C 0 -17.878906 -0.0859375 -17.660156 -0.265625 -17.515625 C -0.441406 -17.367188 -0.675781 -17.320312 -0.96875 -17.375 L -13.25 -19.96875 C -15.59375 -20.46875 -17.429688 -20.375 -18.765625 -19.6875 C -20.097656 -19 -20.765625 -17.554688 -20.765625 -15.359375 C -20.765625 -13.972656 -20.460938 -12.648438 -19.859375 -11.390625 C -19.265625 -10.128906 -18.410156 -9.050781 -17.296875 -8.15625 C -16.179688 -7.257812 -14.832031 -6.640625 -13.25 -6.296875 L -0.96875 -3.703125 C -0.675781 -3.640625 -0.441406 -3.503906 -0.265625 -3.296875 C -0.0859375 -3.085938 0 -2.835938 0 -2.546875 Z M 0 -1.796875 "/></g></g></g><g fill="#003053" fill-opacity="1"><g transform="translate(335.453881, 329.193348)"><g><path d="M 0 -4.9375 C 0 -4.5625 -0.128906 -4.25 -0.390625 -4 C -0.648438 -3.757812 -0.953125 -3.640625 -1.296875 -3.640625 L -35.09375 -3.640625 C -35.476562 -3.640625 -35.789062 -3.757812 -36.03125 -4 C -36.28125 -4.25 -36.40625 -4.5625 -36.40625 -4.9375 L -36.40625 -19.5 C -36.40625 -22.375 -35.960938 -24.878906 -35.078125 -27.015625 C -34.191406 -29.148438 -32.863281 -30.8125 -31.09375 -32 C -29.320312 -33.195312 -27.085938 -33.796875 -24.390625 -33.796875 C -21.722656 -33.796875 -19.519531 -33.195312 -17.78125 -32 C -16.050781 -30.8125 -14.769531 -29.148438 -13.9375 -27.015625 C -13.101562 -24.878906 -12.6875 -22.375 -12.6875 -19.5 L -12.6875 -13.3125 L -1.296875 -13.3125 C -0.953125 -13.3125 -0.648438 -13.179688 -0.390625 -12.921875 C -0.128906 -12.660156 0 -12.335938 0 -11.953125 Z M -19.859375 -13.15625 L -19.859375 -19.234375 C -19.859375 -20.722656 -20.238281 -21.910156 -21 -22.796875 C -21.769531 -23.679688 -22.929688 -24.125 -24.484375 -24.125 C -25.804688 -24.125 -26.914062 -23.742188 -27.8125 -22.984375 C -28.71875 -22.222656 -29.171875 -20.972656 -29.171875 -19.234375 L -29.171875 -13.15625 Z M -19.859375 -13.15625 "/></g></g></g><g fill="#003053" fill-opacity="1"><g transform="translate(335.453881, 294.044024)"><g><path d="M 0 -4.9375 C 0 -4.5625 -0.128906 -4.25 -0.390625 -4 C -0.648438 -3.757812 -0.953125 -3.640625 -1.296875 -3.640625 L -35.09375 -3.640625 C -35.476562 -3.640625 -35.789062 -3.757812 -36.03125 -4 C -36.28125 -4.25 -36.40625 -4.5625 -36.40625 -4.9375 L -36.40625 -19.078125 C -36.40625 -23.585938 -35.375 -27.125 -33.3125 -29.6875 C -31.25 -32.257812 -28.328125 -33.546875 -24.546875 -33.546875 C -22.085938 -33.546875 -20.003906 -32.953125 -18.296875 -31.765625 C -16.597656 -30.585938 -15.316406 -29.03125 -14.453125 -27.09375 L -1.65625 -34.21875 C -1.457031 -34.320312 -1.269531 -34.375 -1.09375 -34.375 C -0.8125 -34.375 -0.554688 -34.257812 -0.328125 -34.03125 C -0.109375 -33.8125 0 -33.5625 0 -33.28125 L 0 -26.359375 C 0 -25.703125 -0.160156 -25.21875 -0.484375 -24.90625 C -0.816406 -24.59375 -1.125 -24.367188 -1.40625 -24.234375 L -12.84375 -18.296875 L -12.84375 -13 L -1.296875 -13 C -0.953125 -13 -0.648438 -12.867188 -0.390625 -12.609375 C -0.128906 -12.347656 0 -12.023438 0 -11.640625 Z M -20.234375 -13 L -20.234375 -18.984375 C -20.234375 -20.609375 -20.628906 -21.828125 -21.421875 -22.640625 C -22.222656 -23.460938 -23.296875 -23.875 -24.640625 -23.875 C -25.992188 -23.875 -27.085938 -23.484375 -27.921875 -22.703125 C -28.753906 -21.921875 -29.171875 -20.679688 -29.171875 -18.984375 L -29.171875 -13 Z M -20.234375 -13 "/></g></g></g><g fill="#003053" fill-opacity="1"><g transform="translate(335.453881, 258.114751)"><g><path d="M 0 -4.9375 C 0 -4.5625 -0.128906 -4.25 -0.390625 -4 C -0.648438 -3.757812 -0.953125 -3.640625 -1.296875 -3.640625 L -35.09375 -3.640625 C -35.476562 -3.640625 -35.789062 -3.757812 -36.03125 -4 C -36.28125 -4.25 -36.40625 -4.5625 -36.40625 -4.9375 L -36.40625 -29.21875 C -36.40625 -29.601562 -36.28125 -29.914062 -36.03125 -30.15625 C -35.789062 -30.40625 -35.476562 -30.53125 -35.09375 -30.53125 L -30.21875 -30.53125 C -29.832031 -30.53125 -29.515625 -30.40625 -29.265625 -30.15625 C -29.023438 -29.914062 -28.90625 -29.601562 -28.90625 -29.21875 L -28.90625 -12.640625 L -21.890625 -12.640625 L -21.890625 -28.078125 C -21.890625 -28.460938 -21.757812 -28.773438 -21.5 -29.015625 C -21.238281 -29.253906 -20.921875 -29.375 -20.546875 -29.375 L -16.015625 -29.375 C -15.671875 -29.375 -15.367188 -29.253906 -15.109375 -29.015625 C -14.847656 -28.773438 -14.71875 -28.460938 -14.71875 -28.078125 L -14.71875 -12.640625 L -7.484375 -12.640625 L -7.484375 -29.640625 C -7.484375 -30.023438 -7.363281 -30.335938 -7.125 -30.578125 C -6.882812 -30.816406 -6.570312 -30.9375 -6.1875 -30.9375 L -1.296875 -30.9375 C -0.953125 -30.9375 -0.648438 -30.816406 -0.390625 -30.578125 C -0.128906 -30.335938 0 -30.023438 0 -29.640625 Z M 0 -4.9375 "/></g></g></g><g fill="#003053" fill-opacity="1"><g transform="translate(335.453881, 224.88927)"><g><path d="M 0.515625 -18.5625 C 0.515625 -15.300781 -0.0195312 -12.492188 -1.09375 -10.140625 C -2.164062 -7.785156 -3.738281 -5.957031 -5.8125 -4.65625 C -7.894531 -3.351562 -10.484375 -2.632812 -13.578125 -2.5 C -14.992188 -2.457031 -16.515625 -2.4375 -18.140625 -2.4375 C -19.773438 -2.4375 -21.335938 -2.457031 -22.828125 -2.5 C -25.847656 -2.632812 -28.414062 -3.359375 -30.53125 -4.671875 C -32.644531 -5.992188 -34.238281 -7.832031 -35.3125 -10.1875 C -36.382812 -12.550781 -36.921875 -15.34375 -36.921875 -18.5625 C -36.921875 -20.851562 -36.632812 -22.96875 -36.0625 -24.90625 C -35.488281 -26.84375 -34.65625 -28.539062 -33.5625 -30 C -32.46875 -31.457031 -31.148438 -32.59375 -29.609375 -33.40625 C -28.066406 -34.21875 -26.328125 -34.644531 -24.390625 -34.6875 C -24.078125 -34.71875 -23.816406 -34.617188 -23.609375 -34.390625 C -23.398438 -34.171875 -23.296875 -33.90625 -23.296875 -33.59375 L -23.296875 -26.578125 C -23.296875 -26.117188 -23.390625 -25.769531 -23.578125 -25.53125 C -23.773438 -25.289062 -24.128906 -25.082031 -24.640625 -24.90625 C -26.484375 -24.425781 -27.742188 -23.640625 -28.421875 -22.546875 C -29.097656 -21.453125 -29.4375 -20.109375 -29.4375 -18.515625 C -29.4375 -16.609375 -28.90625 -15.097656 -27.84375 -13.984375 C -26.789062 -12.878906 -25.03125 -12.273438 -22.5625 -12.171875 C -19.71875 -12.066406 -16.804688 -12.066406 -13.828125 -12.171875 C -11.367188 -12.273438 -9.609375 -12.878906 -8.546875 -13.984375 C -7.492188 -15.097656 -6.96875 -16.609375 -6.96875 -18.515625 C -6.96875 -20.109375 -7.3125 -21.457031 -8 -22.5625 C -8.695312 -23.675781 -9.945312 -24.457031 -11.75 -24.90625 C -12.269531 -25.039062 -12.625 -25.238281 -12.8125 -25.5 C -13.007812 -25.757812 -13.109375 -26.117188 -13.109375 -26.578125 L -13.109375 -33.59375 C -13.109375 -33.90625 -13.003906 -34.171875 -12.796875 -34.390625 C -12.585938 -34.617188 -12.328125 -34.71875 -12.015625 -34.6875 C -10.066406 -34.644531 -8.320312 -34.21875 -6.78125 -33.40625 C -5.238281 -32.59375 -3.921875 -31.457031 -2.828125 -30 C -1.742188 -28.539062 -0.914062 -26.84375 -0.34375 -24.90625 C 0.226562 -22.96875 0.515625 -20.851562 0.515625 -18.5625 Z M 0.515625 -18.5625 "/></g></g></g><g fill="#003053" fill-opacity="1"><g transform="translate(335.453881, 188.388044)"><g><path d="M 0 -4.9375 C 0 -4.5625 -0.128906 -4.25 -0.390625 -4 C -0.648438 -3.757812 -0.953125 -3.640625 -1.296875 -3.640625 L -35.09375 -3.640625 C -35.476562 -3.640625 -35.789062 -3.757812 -36.03125 -4 C -36.28125 -4.25 -36.40625 -4.5625 -36.40625 -4.9375 L -36.40625 -11.90625 C -36.40625 -12.289062 -36.28125 -12.613281 -36.03125 -12.875 C -35.789062 -13.132812 -35.476562 -13.265625 -35.09375 -13.265625 L -1.296875 -13.265625 C -0.953125 -13.265625 -0.648438 -13.132812 -0.390625 -12.875 C -0.128906 -12.613281 0 -12.289062 0 -11.90625 Z M 0 -4.9375 "/></g></g></g><g fill="#003053" fill-opacity="1"><g transform="translate(335.453881, 171.541323)"><g><path d="M 0.515625 -17.21875 C 0.515625 -13.75 0.0234375 -10.867188 -0.953125 -8.578125 C -1.941406 -6.285156 -3.234375 -4.550781 -4.828125 -3.375 C -6.429688 -2.195312 -8.132812 -1.578125 -9.9375 -1.515625 C -10.207031 -1.515625 -10.457031 -1.625 -10.6875 -1.84375 C -10.914062 -2.070312 -11.03125 -2.34375 -11.03125 -2.65625 L -11.03125 -9.203125 C -11.03125 -9.691406 -10.941406 -10.066406 -10.765625 -10.328125 C -10.585938 -10.585938 -10.363281 -10.820312 -10.09375 -11.03125 C -9.570312 -11.300781 -9.066406 -11.6875 -8.578125 -12.1875 C -8.097656 -12.695312 -7.707031 -13.363281 -7.40625 -14.1875 C -7.113281 -15.019531 -6.96875 -16.03125 -6.96875 -17.21875 C -6.96875 -19.226562 -7.28125 -20.742188 -7.90625 -21.765625 C -8.53125 -22.785156 -9.378906 -23.296875 -10.453125 -23.296875 C -11.242188 -23.296875 -11.882812 -23.015625 -12.375 -22.453125 C -12.863281 -21.898438 -13.304688 -21.007812 -13.703125 -19.78125 C -14.097656 -18.550781 -14.503906 -16.914062 -14.921875 -14.875 C -15.472656 -12.238281 -16.191406 -9.992188 -17.078125 -8.140625 C -17.960938 -6.285156 -19.125 -4.867188 -20.5625 -3.890625 C -22 -2.921875 -23.796875 -2.4375 -25.953125 -2.4375 C -28.066406 -2.4375 -29.953125 -3.035156 -31.609375 -4.234375 C -33.273438 -5.429688 -34.578125 -7.101562 -35.515625 -9.25 C -36.453125 -11.40625 -36.921875 -13.957031 -36.921875 -16.90625 C -36.921875 -19.289062 -36.609375 -21.394531 -35.984375 -23.21875 C -35.359375 -25.039062 -34.523438 -26.570312 -33.484375 -27.8125 C -32.441406 -29.0625 -31.335938 -30.003906 -30.171875 -30.640625 C -29.015625 -31.285156 -27.882812 -31.628906 -26.78125 -31.671875 C -26.5 -31.671875 -26.242188 -31.570312 -26.015625 -31.375 C -25.796875 -31.1875 -25.6875 -30.921875 -25.6875 -30.578125 L -25.6875 -23.71875 C -25.6875 -23.332031 -25.753906 -23 -25.890625 -22.71875 C -26.035156 -22.445312 -26.265625 -22.207031 -26.578125 -22 C -27.335938 -21.789062 -28.003906 -21.242188 -28.578125 -20.359375 C -29.148438 -19.472656 -29.4375 -18.320312 -29.4375 -16.90625 C -29.4375 -15.375 -29.164062 -14.179688 -28.625 -13.328125 C -28.082031 -12.484375 -27.257812 -12.0625 -26.15625 -12.0625 C -25.457031 -12.0625 -24.847656 -12.296875 -24.328125 -12.765625 C -23.816406 -13.234375 -23.367188 -14.015625 -22.984375 -15.109375 C -22.597656 -16.203125 -22.195312 -17.703125 -21.78125 -19.609375 C -21.195312 -22.765625 -20.460938 -25.3125 -19.578125 -27.25 C -18.691406 -29.1875 -17.546875 -30.613281 -16.140625 -31.53125 C -14.742188 -32.457031 -12.988281 -32.921875 -10.875 -32.921875 C -8.507812 -32.921875 -6.476562 -32.242188 -4.78125 -30.890625 C -3.082031 -29.535156 -1.773438 -27.6875 -0.859375 -25.34375 C 0.0546875 -23.007812 0.515625 -20.300781 0.515625 -17.21875 Z M 0.515625 -17.21875 "/></g></g></g><g fill="#003053" fill-opacity="1"><g transform="translate(335.453881, 137.067933)"><g><path d="M 0 -4.9375 C 0 -4.5625 -0.128906 -4.25 -0.390625 -4 C -0.648438 -3.757812 -0.953125 -3.640625 -1.296875 -3.640625 L -35.09375 -3.640625 C -35.476562 -3.640625 -35.789062 -3.757812 -36.03125 -4 C -36.28125 -4.25 -36.40625 -4.5625 -36.40625 -4.9375 L -36.40625 -11.90625 C -36.40625 -12.289062 -36.28125 -12.613281 -36.03125 -12.875 C -35.789062 -13.132812 -35.476562 -13.265625 -35.09375 -13.265625 L -1.296875 -13.265625 C -0.953125 -13.265625 -0.648438 -13.132812 -0.390625 -12.875 C -0.128906 -12.613281 0 -12.289062 0 -11.90625 Z M 0 -4.9375 "/></g></g></g><g fill="#003053" fill-opacity="1"><g transform="translate(335.453881, 120.221225)"><g><path d="M 0.515625 -18.515625 C 0.515625 -15.328125 0 -12.550781 -1.03125 -10.1875 C -2.070312 -7.832031 -3.640625 -5.992188 -5.734375 -4.671875 C -7.835938 -3.359375 -10.46875 -2.632812 -13.625 -2.5 C -15.113281 -2.457031 -16.613281 -2.4375 -18.125 -2.4375 C -19.632812 -2.4375 -21.132812 -2.457031 -22.625 -2.5 C -25.738281 -2.632812 -28.363281 -3.367188 -30.5 -4.703125 C -32.632812 -6.035156 -34.238281 -7.890625 -35.3125 -10.265625 C -36.382812 -12.640625 -36.921875 -15.390625 -36.921875 -18.515625 C -36.921875 -21.671875 -36.382812 -24.425781 -35.3125 -26.78125 C -34.238281 -29.132812 -32.632812 -30.988281 -30.5 -32.34375 C -28.363281 -33.695312 -25.738281 -34.425781 -22.625 -34.53125 C -21.132812 -34.59375 -19.632812 -34.625 -18.125 -34.625 C -16.613281 -34.625 -15.113281 -34.59375 -13.625 -34.53125 C -10.46875 -34.425781 -7.835938 -33.707031 -5.734375 -32.375 C -3.640625 -31.039062 -2.070312 -29.191406 -1.03125 -26.828125 C 0 -24.472656 0.515625 -21.703125 0.515625 -18.515625 Z M -6.96875 -18.515625 C -6.96875 -20.347656 -7.519531 -21.84375 -8.625 -23 C -9.738281 -24.164062 -11.507812 -24.785156 -13.9375 -24.859375 C -15.457031 -24.921875 -16.894531 -24.953125 -18.25 -24.953125 C -19.601562 -24.953125 -21.007812 -24.921875 -22.46875 -24.859375 C -24.09375 -24.785156 -25.414062 -24.476562 -26.4375 -23.9375 C -27.457031 -23.40625 -28.210938 -22.671875 -28.703125 -21.734375 C -29.191406 -20.796875 -29.4375 -19.722656 -29.4375 -18.515625 C -29.4375 -17.335938 -29.191406 -16.28125 -28.703125 -15.34375 C -28.210938 -14.40625 -27.457031 -13.65625 -26.4375 -13.09375 C -25.414062 -12.539062 -24.09375 -12.234375 -22.46875 -12.171875 C -21.007812 -12.128906 -19.601562 -12.109375 -18.25 -12.109375 C -16.894531 -12.109375 -15.457031 -12.128906 -13.9375 -12.171875 C -11.507812 -12.273438 -9.738281 -12.90625 -8.625 -14.0625 C -7.519531 -15.226562 -6.96875 -16.710938 -6.96875 -18.515625 Z M -6.96875 -18.515625 "/></g></g></g><g fill="#003053" fill-opacity="1"><g transform="translate(335.453881, 83.200048)"><g><path d="M 0 -4.9375 C 0 -4.5625 -0.128906 -4.25 -0.390625 -4 C -0.648438 -3.757812 -0.953125 -3.640625 -1.296875 -3.640625 L -35.09375 -3.640625 C -35.476562 -3.640625 -35.789062 -3.757812 -36.03125 -4 C -36.28125 -4.25 -36.40625 -4.5625 -36.40625 -4.9375 L -36.40625 -10.453125 C -36.40625 -11.046875 -36.273438 -11.46875 -36.015625 -11.71875 C -35.753906 -11.976562 -35.550781 -12.144531 -35.40625 -12.21875 L -15.4375 -24.90625 L -35.09375 -24.90625 C -35.476562 -24.90625 -35.789062 -25.023438 -36.03125 -25.265625 C -36.28125 -25.515625 -36.40625 -25.828125 -36.40625 -26.203125 L -36.40625 -32.453125 C -36.40625 -32.828125 -36.28125 -33.132812 -36.03125 -33.375 C -35.789062 -33.625 -35.476562 -33.75 -35.09375 -33.75 L -1.359375 -33.75 C -0.972656 -33.75 -0.648438 -33.625 -0.390625 -33.375 C -0.128906 -33.132812 0 -32.828125 0 -32.453125 L 0 -26.890625 C 0 -26.328125 -0.132812 -25.914062 -0.40625 -25.65625 C -0.6875 -25.394531 -0.878906 -25.234375 -0.984375 -25.171875 L -20.234375 -12.484375 L -1.296875 -12.484375 C -0.953125 -12.484375 -0.648438 -12.359375 -0.390625 -12.109375 C -0.128906 -11.867188 0 -11.5625 0 -11.1875 Z M 0 -4.9375 "/></g></g></g></svg>