<svg xmlns="http://www.w3.org/2000/svg" xmlns:xlink="http://www.w3.org/1999/xlink" width="500" zoomAndPan="magnify" viewBox="0 0 375 374.999991" height="500" preserveAspectRatio="xMidYMid meet" version="1.0"><defs><g/></defs><g fill="#ffffff" fill-opacity="1"><g transform="translate(19.753764, 195.674764)"><g><path d="M 1.0625 0 C 0.863281 0 0.71875 -0.0625 0.625 -0.1875 C 0.53125 -0.3125 0.5 -0.460938 0.53125 -0.640625 L 4.234375 -17.984375 C 4.273438 -18.179688 4.363281 -18.34375 4.5 -18.46875 C 4.644531 -18.59375 4.816406 -18.65625 5.015625 -18.65625 L 16.734375 -18.65625 C 16.921875 -18.65625 17.0625 -18.59375 17.15625 -18.46875 C 17.25 -18.34375 17.273438 -18.179688 17.234375 -17.984375 L 16.859375 -16.21875 C 16.828125 -16.039062 16.738281 -15.890625 16.59375 -15.765625 C 16.457031 -15.640625 16.289062 -15.578125 16.09375 -15.578125 L 7.328125 -15.578125 L 6.3125 -10.875 L 14.5 -10.875 C 14.6875 -10.875 14.820312 -10.8125 14.90625 -10.6875 C 15 -10.570312 15.03125 -10.421875 15 -10.234375 L 14.65625 -8.578125 C 14.613281 -8.378906 14.519531 -8.222656 14.375 -8.109375 C 14.238281 -7.992188 14.070312 -7.9375 13.875 -7.9375 L 5.703125 -7.9375 L 4.640625 -3.0625 L 13.640625 -3.0625 C 13.835938 -3.0625 13.976562 -3 14.0625 -2.875 C 14.15625 -2.75 14.179688 -2.585938 14.140625 -2.390625 L 13.765625 -0.640625 C 13.734375 -0.460938 13.644531 -0.3125 13.5 -0.1875 C 13.363281 -0.0625 13.195312 0 13 0 Z M 1.0625 0 "/></g></g></g><g fill="#ffffff" fill-opacity="1"><g transform="translate(36.296572, 195.674764)"><g><path d="M 0.75 0 C 0.570312 0 0.429688 -0.0625 0.328125 -0.1875 C 0.234375 -0.3125 0.203125 -0.460938 0.234375 -0.640625 L 2.90625 -13.21875 C 2.9375 -13.394531 3.023438 -13.546875 3.171875 -13.671875 C 3.328125 -13.796875 3.492188 -13.859375 3.671875 -13.859375 L 5.859375 -13.859375 C 6.035156 -13.859375 6.164062 -13.796875 6.25 -13.671875 C 6.34375 -13.546875 6.375 -13.394531 6.34375 -13.21875 L 6.09375 -12.125 C 6.664062 -12.6875 7.335938 -13.160156 8.109375 -13.546875 C 8.878906 -13.929688 9.753906 -14.125 10.734375 -14.125 C 11.941406 -14.125 12.910156 -13.878906 13.640625 -13.390625 C 14.367188 -12.898438 14.851562 -12.207031 15.09375 -11.3125 C 15.332031 -10.425781 15.316406 -9.363281 15.046875 -8.125 L 13.453125 -0.640625 C 13.421875 -0.460938 13.332031 -0.3125 13.1875 -0.1875 C 13.039062 -0.0625 12.875 0 12.6875 0 L 10.34375 0 C 10.15625 0 10.015625 -0.0625 9.921875 -0.1875 C 9.828125 -0.3125 9.796875 -0.460938 9.828125 -0.640625 L 11.375 -7.96875 C 11.601562 -9.050781 11.578125 -9.867188 11.296875 -10.421875 C 11.023438 -10.984375 10.375 -11.265625 9.34375 -11.265625 C 8.332031 -11.265625 7.476562 -10.972656 6.78125 -10.390625 C 6.082031 -9.804688 5.613281 -9 5.375 -7.96875 L 3.84375 -0.640625 C 3.800781 -0.460938 3.707031 -0.3125 3.5625 -0.1875 C 3.425781 -0.0625 3.269531 0 3.09375 0 Z M 0.75 0 "/></g></g></g><g fill="#ffffff" fill-opacity="1"><g transform="translate(52.919294, 195.674764)"><g><path d="M 5.1875 5.859375 C 3.96875 5.859375 2.96875 5.6875 2.1875 5.34375 C 1.414062 5.007812 0.816406 4.601562 0.390625 4.125 C -0.0234375 3.644531 -0.300781 3.171875 -0.4375 2.703125 C -0.570312 2.234375 -0.613281 1.863281 -0.5625 1.59375 C -0.519531 1.414062 -0.4375 1.257812 -0.3125 1.125 C -0.195312 1 -0.046875 0.9375 0.140625 0.9375 L 2.53125 0.9375 C 2.707031 0.9375 2.835938 0.972656 2.921875 1.046875 C 3.015625 1.128906 3.070312 1.273438 3.09375 1.484375 C 3.125 1.722656 3.195312 1.972656 3.3125 2.234375 C 3.425781 2.503906 3.644531 2.734375 3.96875 2.921875 C 4.289062 3.109375 4.769531 3.203125 5.40625 3.203125 C 6.007812 3.203125 6.570312 3.101562 7.09375 2.90625 C 7.625 2.707031 8.078125 2.375 8.453125 1.90625 C 8.835938 1.445312 9.117188 0.8125 9.296875 0 L 9.671875 -1.8125 C 9.140625 -1.289062 8.546875 -0.867188 7.890625 -0.546875 C 7.234375 -0.234375 6.425781 -0.078125 5.46875 -0.078125 C 4.488281 -0.078125 3.671875 -0.234375 3.015625 -0.546875 C 2.359375 -0.859375 1.847656 -1.289062 1.484375 -1.84375 C 1.117188 -2.40625 0.882812 -3.066406 0.78125 -3.828125 C 0.6875 -4.597656 0.710938 -5.441406 0.859375 -6.359375 C 0.890625 -6.628906 0.925781 -6.867188 0.96875 -7.078125 C 1.007812 -7.296875 1.066406 -7.539062 1.140625 -7.8125 C 1.390625 -8.695312 1.707031 -9.519531 2.09375 -10.28125 C 2.476562 -11.039062 2.941406 -11.707031 3.484375 -12.28125 C 4.035156 -12.863281 4.679688 -13.316406 5.421875 -13.640625 C 6.171875 -13.960938 7.035156 -14.125 8.015625 -14.125 C 9.023438 -14.125 9.863281 -13.929688 10.53125 -13.546875 C 11.195312 -13.160156 11.691406 -12.6875 12.015625 -12.125 L 12.234375 -13.1875 C 12.265625 -13.382812 12.351562 -13.546875 12.5 -13.671875 C 12.65625 -13.796875 12.832031 -13.859375 13.03125 -13.859375 L 15.15625 -13.859375 C 15.351562 -13.859375 15.5 -13.796875 15.59375 -13.671875 C 15.695312 -13.546875 15.726562 -13.382812 15.6875 -13.1875 L 12.96875 -0.34375 C 12.78125 0.613281 12.492188 1.472656 12.109375 2.234375 C 11.722656 3.003906 11.222656 3.660156 10.609375 4.203125 C 10.003906 4.742188 9.253906 5.15625 8.359375 5.4375 C 7.472656 5.71875 6.414062 5.859375 5.1875 5.859375 Z M 6.640625 -2.90625 C 7.359375 -2.90625 7.984375 -3.0625 8.515625 -3.375 C 9.054688 -3.695312 9.503906 -4.113281 9.859375 -4.625 C 10.210938 -5.144531 10.460938 -5.671875 10.609375 -6.203125 C 10.660156 -6.429688 10.71875 -6.722656 10.78125 -7.078125 C 10.851562 -7.441406 10.910156 -7.726562 10.953125 -7.9375 C 11.035156 -8.488281 11.03125 -9.015625 10.9375 -9.515625 C 10.84375 -10.023438 10.613281 -10.441406 10.25 -10.765625 C 9.882812 -11.097656 9.335938 -11.265625 8.609375 -11.265625 C 7.910156 -11.265625 7.300781 -11.097656 6.78125 -10.765625 C 6.269531 -10.441406 5.847656 -10.015625 5.515625 -9.484375 C 5.191406 -8.953125 4.941406 -8.363281 4.765625 -7.71875 C 4.710938 -7.507812 4.660156 -7.296875 4.609375 -7.078125 C 4.554688 -6.867188 4.507812 -6.648438 4.46875 -6.421875 C 4.382812 -5.796875 4.367188 -5.210938 4.421875 -4.671875 C 4.472656 -4.128906 4.671875 -3.695312 5.015625 -3.375 C 5.367188 -3.0625 5.910156 -2.90625 6.640625 -2.90625 Z M 6.640625 -2.90625 "/></g></g></g><g fill="#ffffff" fill-opacity="1"><g transform="translate(69.275635, 195.674764)"><g><path d="M 0.75 0 C 0.570312 0 0.429688 -0.0625 0.328125 -0.1875 C 0.234375 -0.3125 0.203125 -0.460938 0.234375 -0.640625 L 2.90625 -13.21875 C 2.9375 -13.394531 3.023438 -13.546875 3.171875 -13.671875 C 3.328125 -13.796875 3.492188 -13.859375 3.671875 -13.859375 L 5.890625 -13.859375 C 6.085938 -13.859375 6.226562 -13.796875 6.3125 -13.671875 C 6.40625 -13.546875 6.429688 -13.394531 6.390625 -13.21875 L 3.734375 -0.640625 C 3.691406 -0.460938 3.597656 -0.3125 3.453125 -0.1875 C 3.316406 -0.0625 3.148438 0 2.953125 0 Z M 4.046875 -16.140625 C 3.867188 -16.140625 3.726562 -16.203125 3.625 -16.328125 C 3.53125 -16.453125 3.503906 -16.601562 3.546875 -16.78125 L 3.96875 -18.703125 C 4 -18.878906 4.085938 -19.03125 4.234375 -19.15625 C 4.378906 -19.28125 4.546875 -19.34375 4.734375 -19.34375 L 7.171875 -19.34375 C 7.347656 -19.34375 7.488281 -19.28125 7.59375 -19.15625 C 7.695312 -19.03125 7.734375 -18.878906 7.703125 -18.703125 L 7.265625 -16.78125 C 7.234375 -16.601562 7.140625 -16.453125 6.984375 -16.328125 C 6.835938 -16.203125 6.675781 -16.140625 6.5 -16.140625 Z M 4.046875 -16.140625 "/></g></g></g><g fill="#ffffff" fill-opacity="1"><g transform="translate(76.308322, 195.674764)"><g><path d="M 0.75 0 C 0.570312 0 0.429688 -0.0625 0.328125 -0.1875 C 0.234375 -0.3125 0.203125 -0.460938 0.234375 -0.640625 L 2.90625 -13.21875 C 2.9375 -13.394531 3.023438 -13.546875 3.171875 -13.671875 C 3.328125 -13.796875 3.492188 -13.859375 3.671875 -13.859375 L 5.859375 -13.859375 C 6.035156 -13.859375 6.164062 -13.796875 6.25 -13.671875 C 6.34375 -13.546875 6.375 -13.394531 6.34375 -13.21875 L 6.09375 -12.125 C 6.664062 -12.6875 7.335938 -13.160156 8.109375 -13.546875 C 8.878906 -13.929688 9.753906 -14.125 10.734375 -14.125 C 11.941406 -14.125 12.910156 -13.878906 13.640625 -13.390625 C 14.367188 -12.898438 14.851562 -12.207031 15.09375 -11.3125 C 15.332031 -10.425781 15.316406 -9.363281 15.046875 -8.125 L 13.453125 -0.640625 C 13.421875 -0.460938 13.332031 -0.3125 13.1875 -0.1875 C 13.039062 -0.0625 12.875 0 12.6875 0 L 10.34375 0 C 10.15625 0 10.015625 -0.0625 9.921875 -0.1875 C 9.828125 -0.3125 9.796875 -0.460938 9.828125 -0.640625 L 11.375 -7.96875 C 11.601562 -9.050781 11.578125 -9.867188 11.296875 -10.421875 C 11.023438 -10.984375 10.375 -11.265625 9.34375 -11.265625 C 8.332031 -11.265625 7.476562 -10.972656 6.78125 -10.390625 C 6.082031 -9.804688 5.613281 -9 5.375 -7.96875 L 3.84375 -0.640625 C 3.800781 -0.460938 3.707031 -0.3125 3.5625 -0.1875 C 3.425781 -0.0625 3.269531 0 3.09375 0 Z M 0.75 0 "/></g></g></g><g fill="#ffffff" fill-opacity="1"><g transform="translate(92.931044, 195.674764)"><g><path d="M 6.359375 0.265625 C 5.066406 0.265625 3.988281 0.0078125 3.125 -0.5 C 2.269531 -1.019531 1.675781 -1.765625 1.34375 -2.734375 C 1.019531 -3.710938 0.972656 -4.894531 1.203125 -6.28125 C 1.234375 -6.457031 1.273438 -6.679688 1.328125 -6.953125 C 1.378906 -7.234375 1.429688 -7.457031 1.484375 -7.625 C 1.847656 -8.96875 2.398438 -10.125 3.140625 -11.09375 C 3.890625 -12.0625 4.800781 -12.804688 5.875 -13.328125 C 6.945312 -13.859375 8.132812 -14.125 9.4375 -14.125 C 10.875 -14.125 12.007812 -13.820312 12.84375 -13.21875 C 13.675781 -12.625 14.226562 -11.800781 14.5 -10.75 C 14.78125 -9.695312 14.785156 -8.476562 14.515625 -7.09375 L 14.390625 -6.53125 C 14.347656 -6.351562 14.25 -6.203125 14.09375 -6.078125 C 13.945312 -5.953125 13.78125 -5.890625 13.59375 -5.890625 L 4.734375 -5.890625 C 4.734375 -5.890625 4.726562 -5.863281 4.71875 -5.8125 C 4.71875 -5.757812 4.707031 -5.710938 4.6875 -5.671875 C 4.601562 -5.046875 4.613281 -4.472656 4.71875 -3.953125 C 4.820312 -3.429688 5.054688 -3.007812 5.421875 -2.6875 C 5.785156 -2.375 6.269531 -2.21875 6.875 -2.21875 C 7.375 -2.21875 7.804688 -2.289062 8.171875 -2.4375 C 8.546875 -2.59375 8.851562 -2.765625 9.09375 -2.953125 C 9.332031 -3.148438 9.515625 -3.3125 9.640625 -3.4375 C 9.859375 -3.644531 10.019531 -3.769531 10.125 -3.8125 C 10.226562 -3.863281 10.378906 -3.890625 10.578125 -3.890625 L 12.890625 -3.890625 C 13.054688 -3.890625 13.179688 -3.832031 13.265625 -3.71875 C 13.359375 -3.613281 13.382812 -3.484375 13.34375 -3.328125 C 13.257812 -3.046875 13.035156 -2.695312 12.671875 -2.28125 C 12.316406 -1.875 11.835938 -1.472656 11.234375 -1.078125 C 10.640625 -0.691406 9.925781 -0.367188 9.09375 -0.109375 C 8.269531 0.140625 7.359375 0.265625 6.359375 0.265625 Z M 5.21875 -8.125 L 11.109375 -8.125 L 11.140625 -8.203125 C 11.316406 -8.898438 11.335938 -9.507812 11.203125 -10.03125 C 11.066406 -10.550781 10.804688 -10.957031 10.421875 -11.25 C 10.046875 -11.539062 9.546875 -11.6875 8.921875 -11.6875 C 8.304688 -11.6875 7.75 -11.539062 7.25 -11.25 C 6.75 -10.957031 6.328125 -10.550781 5.984375 -10.03125 C 5.648438 -9.507812 5.40625 -8.898438 5.25 -8.203125 Z M 5.21875 -8.125 "/></g></g></g><g fill="#ffffff" fill-opacity="1"><g transform="translate(108.248462, 195.674764)"><g><path d="M 6.359375 0.265625 C 5.066406 0.265625 3.988281 0.0078125 3.125 -0.5 C 2.269531 -1.019531 1.675781 -1.765625 1.34375 -2.734375 C 1.019531 -3.710938 0.972656 -4.894531 1.203125 -6.28125 C 1.234375 -6.457031 1.273438 -6.679688 1.328125 -6.953125 C 1.378906 -7.234375 1.429688 -7.457031 1.484375 -7.625 C 1.847656 -8.96875 2.398438 -10.125 3.140625 -11.09375 C 3.890625 -12.0625 4.800781 -12.804688 5.875 -13.328125 C 6.945312 -13.859375 8.132812 -14.125 9.4375 -14.125 C 10.875 -14.125 12.007812 -13.820312 12.84375 -13.21875 C 13.675781 -12.625 14.226562 -11.800781 14.5 -10.75 C 14.78125 -9.695312 14.785156 -8.476562 14.515625 -7.09375 L 14.390625 -6.53125 C 14.347656 -6.351562 14.25 -6.203125 14.09375 -6.078125 C 13.945312 -5.953125 13.78125 -5.890625 13.59375 -5.890625 L 4.734375 -5.890625 C 4.734375 -5.890625 4.726562 -5.863281 4.71875 -5.8125 C 4.71875 -5.757812 4.707031 -5.710938 4.6875 -5.671875 C 4.601562 -5.046875 4.613281 -4.472656 4.71875 -3.953125 C 4.820312 -3.429688 5.054688 -3.007812 5.421875 -2.6875 C 5.785156 -2.375 6.269531 -2.21875 6.875 -2.21875 C 7.375 -2.21875 7.804688 -2.289062 8.171875 -2.4375 C 8.546875 -2.59375 8.851562 -2.765625 9.09375 -2.953125 C 9.332031 -3.148438 9.515625 -3.3125 9.640625 -3.4375 C 9.859375 -3.644531 10.019531 -3.769531 10.125 -3.8125 C 10.226562 -3.863281 10.378906 -3.890625 10.578125 -3.890625 L 12.890625 -3.890625 C 13.054688 -3.890625 13.179688 -3.832031 13.265625 -3.71875 C 13.359375 -3.613281 13.382812 -3.484375 13.34375 -3.328125 C 13.257812 -3.046875 13.035156 -2.695312 12.671875 -2.28125 C 12.316406 -1.875 11.835938 -1.472656 11.234375 -1.078125 C 10.640625 -0.691406 9.925781 -0.367188 9.09375 -0.109375 C 8.269531 0.140625 7.359375 0.265625 6.359375 0.265625 Z M 5.21875 -8.125 L 11.109375 -8.125 L 11.140625 -8.203125 C 11.316406 -8.898438 11.335938 -9.507812 11.203125 -10.03125 C 11.066406 -10.550781 10.804688 -10.957031 10.421875 -11.25 C 10.046875 -11.539062 9.546875 -11.6875 8.921875 -11.6875 C 8.304688 -11.6875 7.75 -11.539062 7.25 -11.25 C 6.75 -10.957031 6.328125 -10.550781 5.984375 -10.03125 C 5.648438 -9.507812 5.40625 -8.898438 5.25 -8.203125 Z M 5.21875 -8.125 "/></g></g></g><g fill="#ffffff" fill-opacity="1"><g transform="translate(123.565879, 195.674764)"><g><path d="M 0.75 0 C 0.570312 0 0.429688 -0.0625 0.328125 -0.1875 C 0.234375 -0.3125 0.203125 -0.460938 0.234375 -0.640625 L 2.90625 -13.1875 C 2.9375 -13.382812 3.023438 -13.546875 3.171875 -13.671875 C 3.328125 -13.796875 3.492188 -13.859375 3.671875 -13.859375 L 5.828125 -13.859375 C 6.003906 -13.859375 6.140625 -13.796875 6.234375 -13.671875 C 6.335938 -13.546875 6.375 -13.382812 6.34375 -13.1875 L 6.09375 -12.09375 C 6.519531 -12.664062 7.0625 -13.101562 7.71875 -13.40625 C 8.382812 -13.707031 9.1875 -13.859375 10.125 -13.859375 L 11.421875 -13.859375 C 11.617188 -13.859375 11.757812 -13.796875 11.84375 -13.671875 C 11.9375 -13.546875 11.96875 -13.394531 11.9375 -13.21875 L 11.53125 -11.296875 C 11.5 -11.117188 11.40625 -10.96875 11.25 -10.84375 C 11.101562 -10.71875 10.941406 -10.65625 10.765625 -10.65625 L 8.6875 -10.65625 C 7.832031 -10.65625 7.113281 -10.421875 6.53125 -9.953125 C 5.957031 -9.484375 5.582031 -8.820312 5.40625 -7.96875 L 3.84375 -0.640625 C 3.800781 -0.460938 3.707031 -0.3125 3.5625 -0.1875 C 3.425781 -0.0625 3.257812 0 3.0625 0 Z M 0.75 0 "/></g></g></g><g fill="#ffffff" fill-opacity="1"><g transform="translate(134.727619, 195.674764)"><g><path d="M 6.359375 0.265625 C 5.066406 0.265625 3.988281 0.0078125 3.125 -0.5 C 2.269531 -1.019531 1.675781 -1.765625 1.34375 -2.734375 C 1.019531 -3.710938 0.972656 -4.894531 1.203125 -6.28125 C 1.234375 -6.457031 1.273438 -6.679688 1.328125 -6.953125 C 1.378906 -7.234375 1.429688 -7.457031 1.484375 -7.625 C 1.847656 -8.96875 2.398438 -10.125 3.140625 -11.09375 C 3.890625 -12.0625 4.800781 -12.804688 5.875 -13.328125 C 6.945312 -13.859375 8.132812 -14.125 9.4375 -14.125 C 10.875 -14.125 12.007812 -13.820312 12.84375 -13.21875 C 13.675781 -12.625 14.226562 -11.800781 14.5 -10.75 C 14.78125 -9.695312 14.785156 -8.476562 14.515625 -7.09375 L 14.390625 -6.53125 C 14.347656 -6.351562 14.25 -6.203125 14.09375 -6.078125 C 13.945312 -5.953125 13.78125 -5.890625 13.59375 -5.890625 L 4.734375 -5.890625 C 4.734375 -5.890625 4.726562 -5.863281 4.71875 -5.8125 C 4.71875 -5.757812 4.707031 -5.710938 4.6875 -5.671875 C 4.601562 -5.046875 4.613281 -4.472656 4.71875 -3.953125 C 4.820312 -3.429688 5.054688 -3.007812 5.421875 -2.6875 C 5.785156 -2.375 6.269531 -2.21875 6.875 -2.21875 C 7.375 -2.21875 7.804688 -2.289062 8.171875 -2.4375 C 8.546875 -2.59375 8.851562 -2.765625 9.09375 -2.953125 C 9.332031 -3.148438 9.515625 -3.3125 9.640625 -3.4375 C 9.859375 -3.644531 10.019531 -3.769531 10.125 -3.8125 C 10.226562 -3.863281 10.378906 -3.890625 10.578125 -3.890625 L 12.890625 -3.890625 C 13.054688 -3.890625 13.179688 -3.832031 13.265625 -3.71875 C 13.359375 -3.613281 13.382812 -3.484375 13.34375 -3.328125 C 13.257812 -3.046875 13.035156 -2.695312 12.671875 -2.28125 C 12.316406 -1.875 11.835938 -1.472656 11.234375 -1.078125 C 10.640625 -0.691406 9.925781 -0.367188 9.09375 -0.109375 C 8.269531 0.140625 7.359375 0.265625 6.359375 0.265625 Z M 5.21875 -8.125 L 11.109375 -8.125 L 11.140625 -8.203125 C 11.316406 -8.898438 11.335938 -9.507812 11.203125 -10.03125 C 11.066406 -10.550781 10.804688 -10.957031 10.421875 -11.25 C 10.046875 -11.539062 9.546875 -11.6875 8.921875 -11.6875 C 8.304688 -11.6875 7.75 -11.539062 7.25 -11.25 C 6.75 -10.957031 6.328125 -10.550781 5.984375 -10.03125 C 5.648438 -9.507812 5.40625 -8.898438 5.25 -8.203125 Z M 5.21875 -8.125 "/></g></g></g><g fill="#ffffff" fill-opacity="1"><g transform="translate(150.045036, 195.674764)"><g><path d="M 5.375 0.265625 C 4.457031 0.265625 3.671875 0.109375 3.015625 -0.203125 C 2.359375 -0.515625 1.84375 -0.953125 1.46875 -1.515625 C 1.09375 -2.085938 0.851562 -2.757812 0.75 -3.53125 C 0.644531 -4.300781 0.660156 -5.148438 0.796875 -6.078125 C 0.847656 -6.390625 0.898438 -6.675781 0.953125 -6.9375 C 1.003906 -7.195312 1.078125 -7.488281 1.171875 -7.8125 C 1.398438 -8.695312 1.707031 -9.519531 2.09375 -10.28125 C 2.476562 -11.039062 2.953125 -11.707031 3.515625 -12.28125 C 4.085938 -12.863281 4.742188 -13.316406 5.484375 -13.640625 C 6.234375 -13.960938 7.078125 -14.125 8.015625 -14.125 C 9.023438 -14.125 9.84375 -13.957031 10.46875 -13.625 C 11.101562 -13.300781 11.582031 -12.878906 11.90625 -12.359375 L 13.1875 -18.28125 C 13.21875 -18.457031 13.304688 -18.609375 13.453125 -18.734375 C 13.597656 -18.859375 13.757812 -18.921875 13.9375 -18.921875 L 16.203125 -18.921875 C 16.390625 -18.921875 16.53125 -18.859375 16.625 -18.734375 C 16.726562 -18.609375 16.765625 -18.457031 16.734375 -18.28125 L 12.96875 -0.640625 C 12.9375 -0.460938 12.847656 -0.3125 12.703125 -0.1875 C 12.566406 -0.0625 12.398438 0 12.203125 0 L 10.09375 0 C 9.914062 0 9.773438 -0.0625 9.671875 -0.1875 C 9.578125 -0.3125 9.550781 -0.460938 9.59375 -0.640625 L 9.796875 -1.625 C 9.253906 -1.070312 8.648438 -0.617188 7.984375 -0.265625 C 7.316406 0.0859375 6.445312 0.265625 5.375 0.265625 Z M 6.578125 -2.578125 C 7.304688 -2.578125 7.945312 -2.742188 8.5 -3.078125 C 9.050781 -3.421875 9.492188 -3.851562 9.828125 -4.375 C 10.171875 -4.90625 10.410156 -5.445312 10.546875 -6 C 10.640625 -6.3125 10.722656 -6.648438 10.796875 -7.015625 C 10.878906 -7.378906 10.945312 -7.722656 11 -8.046875 C 11.101562 -8.578125 11.097656 -9.085938 10.984375 -9.578125 C 10.867188 -10.066406 10.625 -10.46875 10.25 -10.78125 C 9.882812 -11.101562 9.34375 -11.265625 8.625 -11.265625 C 7.914062 -11.265625 7.304688 -11.097656 6.796875 -10.765625 C 6.296875 -10.441406 5.882812 -10.015625 5.5625 -9.484375 C 5.25 -8.953125 4.992188 -8.363281 4.796875 -7.71875 C 4.722656 -7.457031 4.65625 -7.191406 4.59375 -6.921875 C 4.53125 -6.660156 4.484375 -6.394531 4.453125 -6.125 C 4.359375 -5.488281 4.34375 -4.898438 4.40625 -4.359375 C 4.46875 -3.828125 4.664062 -3.394531 5 -3.0625 C 5.34375 -2.738281 5.867188 -2.578125 6.578125 -2.578125 Z M 6.578125 -2.578125 "/></g></g></g><g fill="#ffffff" fill-opacity="1"><g transform="translate(166.3481, 195.674764)"><g/></g></g><g fill="#ffffff" fill-opacity="1"><g transform="translate(172.554984, 195.674764)"><g><path d="M 2.21875 0 C 2.019531 0 1.867188 -0.0625 1.765625 -0.1875 C 1.671875 -0.3125 1.640625 -0.460938 1.671875 -0.640625 L 3.890625 -11.03125 L 1.734375 -11.03125 C 1.554688 -11.03125 1.414062 -11.09375 1.3125 -11.21875 C 1.21875 -11.34375 1.1875 -11.5 1.21875 -11.6875 L 1.546875 -13.21875 C 1.578125 -13.394531 1.664062 -13.546875 1.8125 -13.671875 C 1.96875 -13.796875 2.144531 -13.859375 2.34375 -13.859375 L 4.5 -13.859375 L 4.71875 -14.953125 C 4.96875 -16.015625 5.347656 -16.894531 5.859375 -17.59375 C 6.378906 -18.300781 7.035156 -18.832031 7.828125 -19.1875 C 8.628906 -19.539062 9.5625 -19.71875 10.625 -19.71875 L 12.765625 -19.71875 C 12.953125 -19.71875 13.09375 -19.65625 13.1875 -19.53125 C 13.28125 -19.40625 13.304688 -19.253906 13.265625 -19.078125 L 12.953125 -17.5625 C 12.910156 -17.363281 12.8125 -17.203125 12.65625 -17.078125 C 12.507812 -16.953125 12.347656 -16.890625 12.171875 -16.890625 L 10.578125 -16.890625 C 9.867188 -16.890625 9.316406 -16.710938 8.921875 -16.359375 C 8.535156 -16.003906 8.28125 -15.488281 8.15625 -14.8125 L 7.9375 -13.859375 L 11.25 -13.859375 C 11.4375 -13.859375 11.570312 -13.796875 11.65625 -13.671875 C 11.75 -13.546875 11.78125 -13.394531 11.75 -13.21875 L 11.421875 -11.6875 C 11.390625 -11.5 11.300781 -11.34375 11.15625 -11.21875 C 11.019531 -11.09375 10.851562 -11.03125 10.65625 -11.03125 L 7.359375 -11.03125 L 5.109375 -0.640625 C 5.078125 -0.460938 4.988281 -0.3125 4.84375 -0.1875 C 4.707031 -0.0625 4.550781 0 4.375 0 Z M 2.21875 0 "/></g></g></g><g fill="#ffffff" fill-opacity="1"><g transform="translate(183.503604, 195.674764)"><g><path d="M 6.3125 0.265625 C 4.96875 0.265625 3.84375 0.0195312 2.9375 -0.46875 C 2.039062 -0.96875 1.398438 -1.671875 1.015625 -2.578125 C 0.640625 -3.484375 0.550781 -4.539062 0.75 -5.75 C 0.800781 -6.070312 0.875 -6.460938 0.96875 -6.921875 C 1.070312 -7.390625 1.164062 -7.78125 1.25 -8.09375 C 1.570312 -9.320312 2.066406 -10.382812 2.734375 -11.28125 C 3.398438 -12.175781 4.25 -12.875 5.28125 -13.375 C 6.320312 -13.875 7.554688 -14.125 8.984375 -14.125 C 10.328125 -14.125 11.445312 -13.875 12.34375 -13.375 C 13.238281 -12.875 13.878906 -12.175781 14.265625 -11.28125 C 14.660156 -10.382812 14.765625 -9.320312 14.578125 -8.09375 C 14.503906 -7.78125 14.421875 -7.390625 14.328125 -6.921875 C 14.242188 -6.460938 14.15625 -6.070312 14.0625 -5.75 C 13.75 -4.539062 13.265625 -3.484375 12.609375 -2.578125 C 11.960938 -1.671875 11.117188 -0.96875 10.078125 -0.46875 C 9.046875 0.0195312 7.789062 0.265625 6.3125 0.265625 Z M 6.578125 -2.375 C 7.535156 -2.375 8.347656 -2.671875 9.015625 -3.265625 C 9.679688 -3.859375 10.164062 -4.734375 10.46875 -5.890625 C 10.539062 -6.148438 10.617188 -6.492188 10.703125 -6.921875 C 10.796875 -7.347656 10.867188 -7.695312 10.921875 -7.96875 C 11.117188 -9.125 11.039062 -10 10.6875 -10.59375 C 10.332031 -11.1875 9.675781 -11.484375 8.71875 -11.484375 C 7.769531 -11.484375 6.957031 -11.1875 6.28125 -10.59375 C 5.613281 -10 5.132812 -9.125 4.84375 -7.96875 C 4.769531 -7.695312 4.6875 -7.347656 4.59375 -6.921875 C 4.5 -6.492188 4.429688 -6.148438 4.390625 -5.890625 C 4.203125 -4.734375 4.28125 -3.859375 4.625 -3.265625 C 4.96875 -2.671875 5.617188 -2.375 6.578125 -2.375 Z M 6.578125 -2.375 "/></g></g></g><g fill="#ffffff" fill-opacity="1"><g transform="translate(199.247248, 195.674764)"><g><path d="M 0.75 0 C 0.570312 0 0.429688 -0.0625 0.328125 -0.1875 C 0.234375 -0.3125 0.203125 -0.460938 0.234375 -0.640625 L 2.90625 -13.1875 C 2.9375 -13.382812 3.023438 -13.546875 3.171875 -13.671875 C 3.328125 -13.796875 3.492188 -13.859375 3.671875 -13.859375 L 5.828125 -13.859375 C 6.003906 -13.859375 6.140625 -13.796875 6.234375 -13.671875 C 6.335938 -13.546875 6.375 -13.382812 6.34375 -13.1875 L 6.09375 -12.09375 C 6.519531 -12.664062 7.0625 -13.101562 7.71875 -13.40625 C 8.382812 -13.707031 9.1875 -13.859375 10.125 -13.859375 L 11.421875 -13.859375 C 11.617188 -13.859375 11.757812 -13.796875 11.84375 -13.671875 C 11.9375 -13.546875 11.96875 -13.394531 11.9375 -13.21875 L 11.53125 -11.296875 C 11.5 -11.117188 11.40625 -10.96875 11.25 -10.84375 C 11.101562 -10.71875 10.941406 -10.65625 10.765625 -10.65625 L 8.6875 -10.65625 C 7.832031 -10.65625 7.113281 -10.421875 6.53125 -9.953125 C 5.957031 -9.484375 5.582031 -8.820312 5.40625 -7.96875 L 3.84375 -0.640625 C 3.800781 -0.460938 3.707031 -0.3125 3.5625 -0.1875 C 3.425781 -0.0625 3.257812 0 3.0625 0 Z M 0.75 0 "/></g></g></g><g fill="#ffffff" fill-opacity="1"><g transform="translate(210.408987, 195.674764)"><g/></g></g><g fill="#ffffff" fill-opacity="1"><g transform="translate(216.615872, 195.674764)"><g><path d="M 1.0625 0 C 0.863281 0 0.71875 -0.0625 0.625 -0.1875 C 0.53125 -0.3125 0.5 -0.460938 0.53125 -0.640625 L 4.234375 -17.984375 C 4.273438 -18.179688 4.363281 -18.34375 4.5 -18.46875 C 4.644531 -18.59375 4.816406 -18.65625 5.015625 -18.65625 L 16.734375 -18.65625 C 16.921875 -18.65625 17.0625 -18.59375 17.15625 -18.46875 C 17.25 -18.34375 17.273438 -18.179688 17.234375 -17.984375 L 16.859375 -16.21875 C 16.828125 -16.039062 16.738281 -15.890625 16.59375 -15.765625 C 16.457031 -15.640625 16.289062 -15.578125 16.09375 -15.578125 L 7.328125 -15.578125 L 6.3125 -10.875 L 14.5 -10.875 C 14.6875 -10.875 14.820312 -10.8125 14.90625 -10.6875 C 15 -10.570312 15.03125 -10.421875 15 -10.234375 L 14.65625 -8.578125 C 14.613281 -8.378906 14.519531 -8.222656 14.375 -8.109375 C 14.238281 -7.992188 14.070312 -7.9375 13.875 -7.9375 L 5.703125 -7.9375 L 4.640625 -3.0625 L 13.640625 -3.0625 C 13.835938 -3.0625 13.976562 -3 14.0625 -2.875 C 14.15625 -2.75 14.179688 -2.585938 14.140625 -2.390625 L 13.765625 -0.640625 C 13.734375 -0.460938 13.644531 -0.3125 13.5 -0.1875 C 13.363281 -0.0625 13.195312 0 13 0 Z M 1.0625 0 "/></g></g></g><g fill="#ffffff" fill-opacity="1"><g transform="translate(233.15868, 195.674764)"><g><path d="M -0.453125 0 C -0.703125 0 -0.863281 -0.109375 -0.9375 -0.328125 C -1.019531 -0.554688 -0.972656 -0.757812 -0.796875 -0.9375 L 5.171875 -7.1875 L 2.125 -12.96875 C 2.039062 -13.144531 2.054688 -13.335938 2.171875 -13.546875 C 2.285156 -13.753906 2.457031 -13.859375 2.6875 -13.859375 L 4.90625 -13.859375 C 5.113281 -13.859375 5.265625 -13.800781 5.359375 -13.6875 C 5.460938 -13.582031 5.53125 -13.488281 5.5625 -13.40625 L 7.75 -9.375 L 11.6875 -13.40625 C 11.78125 -13.488281 11.890625 -13.582031 12.015625 -13.6875 C 12.140625 -13.800781 12.332031 -13.859375 12.59375 -13.859375 L 14.953125 -13.859375 C 15.179688 -13.867188 15.335938 -13.757812 15.421875 -13.53125 C 15.515625 -13.300781 15.460938 -13.085938 15.265625 -12.890625 L 9.515625 -6.84375 L 12.59375 -0.875 C 12.707031 -0.6875 12.710938 -0.492188 12.609375 -0.296875 C 12.515625 -0.0976562 12.332031 0 12.0625 0 L 9.796875 0 C 9.585938 0 9.429688 -0.046875 9.328125 -0.140625 C 9.234375 -0.242188 9.160156 -0.335938 9.109375 -0.421875 L 6.875 -4.578125 L 2.84375 -0.421875 C 2.78125 -0.347656 2.6875 -0.257812 2.5625 -0.15625 C 2.4375 -0.0507812 2.238281 0 1.96875 0 Z M -0.453125 0 "/></g></g></g><g fill="#ffffff" fill-opacity="1"><g transform="translate(248.156423, 195.674764)"><g><path d="M 6.1875 0.265625 C 4.988281 0.265625 3.941406 0.0234375 3.046875 -0.453125 C 2.148438 -0.929688 1.488281 -1.628906 1.0625 -2.546875 C 0.632812 -3.460938 0.535156 -4.566406 0.765625 -5.859375 C 0.828125 -6.128906 0.898438 -6.476562 0.984375 -6.90625 C 1.078125 -7.34375 1.15625 -7.707031 1.21875 -8 C 1.695312 -9.925781 2.582031 -11.425781 3.875 -12.5 C 5.175781 -13.582031 6.832031 -14.125 8.84375 -14.125 C 9.957031 -14.125 10.890625 -13.960938 11.640625 -13.640625 C 12.398438 -13.316406 13 -12.90625 13.4375 -12.40625 C 13.875 -11.914062 14.175781 -11.398438 14.34375 -10.859375 C 14.507812 -10.328125 14.566406 -9.851562 14.515625 -9.4375 C 14.503906 -9.238281 14.429688 -9.082031 14.296875 -8.96875 C 14.160156 -8.851562 14.003906 -8.796875 13.828125 -8.796875 L 11.40625 -8.796875 C 11.226562 -8.796875 11.085938 -8.835938 10.984375 -8.921875 C 10.890625 -9.015625 10.832031 -9.148438 10.8125 -9.328125 C 10.8125 -10.035156 10.617188 -10.546875 10.234375 -10.859375 C 9.859375 -11.179688 9.316406 -11.34375 8.609375 -11.34375 C 7.734375 -11.34375 6.953125 -11.0625 6.265625 -10.5 C 5.585938 -9.945312 5.097656 -9.066406 4.796875 -7.859375 C 4.722656 -7.535156 4.648438 -7.203125 4.578125 -6.859375 C 4.503906 -6.523438 4.441406 -6.238281 4.390625 -6 C 4.203125 -4.769531 4.289062 -3.878906 4.65625 -3.328125 C 5.03125 -2.773438 5.65625 -2.5 6.53125 -2.5 C 7.21875 -2.5 7.835938 -2.644531 8.390625 -2.9375 C 8.941406 -3.238281 9.40625 -3.742188 9.78125 -4.453125 C 9.882812 -4.640625 9.992188 -4.773438 10.109375 -4.859375 C 10.222656 -4.941406 10.367188 -4.984375 10.546875 -4.984375 L 12.953125 -4.984375 C 13.128906 -4.984375 13.265625 -4.925781 13.359375 -4.8125 C 13.453125 -4.695312 13.472656 -4.539062 13.421875 -4.34375 C 13.296875 -3.945312 13.066406 -3.488281 12.734375 -2.96875 C 12.410156 -2.445312 11.960938 -1.9375 11.390625 -1.4375 C 10.828125 -0.9375 10.113281 -0.523438 9.25 -0.203125 C 8.394531 0.109375 7.375 0.265625 6.1875 0.265625 Z M 6.1875 0.265625 "/></g></g></g><g fill="#ffffff" fill-opacity="1"><g transform="translate(263.340635, 195.674764)"><g><path d="M 6.359375 0.265625 C 5.066406 0.265625 3.988281 0.0078125 3.125 -0.5 C 2.269531 -1.019531 1.675781 -1.765625 1.34375 -2.734375 C 1.019531 -3.710938 0.972656 -4.894531 1.203125 -6.28125 C 1.234375 -6.457031 1.273438 -6.679688 1.328125 -6.953125 C 1.378906 -7.234375 1.429688 -7.457031 1.484375 -7.625 C 1.847656 -8.96875 2.398438 -10.125 3.140625 -11.09375 C 3.890625 -12.0625 4.800781 -12.804688 5.875 -13.328125 C 6.945312 -13.859375 8.132812 -14.125 9.4375 -14.125 C 10.875 -14.125 12.007812 -13.820312 12.84375 -13.21875 C 13.675781 -12.625 14.226562 -11.800781 14.5 -10.75 C 14.78125 -9.695312 14.785156 -8.476562 14.515625 -7.09375 L 14.390625 -6.53125 C 14.347656 -6.351562 14.25 -6.203125 14.09375 -6.078125 C 13.945312 -5.953125 13.78125 -5.890625 13.59375 -5.890625 L 4.734375 -5.890625 C 4.734375 -5.890625 4.726562 -5.863281 4.71875 -5.8125 C 4.71875 -5.757812 4.707031 -5.710938 4.6875 -5.671875 C 4.601562 -5.046875 4.613281 -4.472656 4.71875 -3.953125 C 4.820312 -3.429688 5.054688 -3.007812 5.421875 -2.6875 C 5.785156 -2.375 6.269531 -2.21875 6.875 -2.21875 C 7.375 -2.21875 7.804688 -2.289062 8.171875 -2.4375 C 8.546875 -2.59375 8.851562 -2.765625 9.09375 -2.953125 C 9.332031 -3.148438 9.515625 -3.3125 9.640625 -3.4375 C 9.859375 -3.644531 10.019531 -3.769531 10.125 -3.8125 C 10.226562 -3.863281 10.378906 -3.890625 10.578125 -3.890625 L 12.890625 -3.890625 C 13.054688 -3.890625 13.179688 -3.832031 13.265625 -3.71875 C 13.359375 -3.613281 13.382812 -3.484375 13.34375 -3.328125 C 13.257812 -3.046875 13.035156 -2.695312 12.671875 -2.28125 C 12.316406 -1.875 11.835938 -1.472656 11.234375 -1.078125 C 10.640625 -0.691406 9.925781 -0.367188 9.09375 -0.109375 C 8.269531 0.140625 7.359375 0.265625 6.359375 0.265625 Z M 5.21875 -8.125 L 11.109375 -8.125 L 11.140625 -8.203125 C 11.316406 -8.898438 11.335938 -9.507812 11.203125 -10.03125 C 11.066406 -10.550781 10.804688 -10.957031 10.421875 -11.25 C 10.046875 -11.539062 9.546875 -11.6875 8.921875 -11.6875 C 8.304688 -11.6875 7.75 -11.539062 7.25 -11.25 C 6.75 -10.957031 6.328125 -10.550781 5.984375 -10.03125 C 5.648438 -9.507812 5.40625 -8.898438 5.25 -8.203125 Z M 5.21875 -8.125 "/></g></g></g><g fill="#ffffff" fill-opacity="1"><g transform="translate(278.658038, 195.674764)"><g><path d="M 0.75 0 C 0.570312 0 0.429688 -0.0625 0.328125 -0.1875 C 0.234375 -0.3125 0.203125 -0.460938 0.234375 -0.640625 L 4 -18.28125 C 4.03125 -18.457031 4.113281 -18.609375 4.25 -18.734375 C 4.394531 -18.859375 4.554688 -18.921875 4.734375 -18.921875 L 6.953125 -18.921875 C 7.148438 -18.921875 7.296875 -18.859375 7.390625 -18.734375 C 7.492188 -18.609375 7.523438 -18.457031 7.484375 -18.28125 L 3.734375 -0.640625 C 3.691406 -0.460938 3.597656 -0.3125 3.453125 -0.1875 C 3.316406 -0.0625 3.148438 0 2.953125 0 Z M 0.75 0 "/></g></g></g><g fill="#ffffff" fill-opacity="1"><g transform="translate(285.717363, 195.674764)"><g><path d="M 0.75 0 C 0.570312 0 0.429688 -0.0625 0.328125 -0.1875 C 0.234375 -0.3125 0.203125 -0.460938 0.234375 -0.640625 L 4 -18.28125 C 4.03125 -18.457031 4.113281 -18.609375 4.25 -18.734375 C 4.394531 -18.859375 4.554688 -18.921875 4.734375 -18.921875 L 6.953125 -18.921875 C 7.148438 -18.921875 7.296875 -18.859375 7.390625 -18.734375 C 7.492188 -18.609375 7.523438 -18.457031 7.484375 -18.28125 L 3.734375 -0.640625 C 3.691406 -0.460938 3.597656 -0.3125 3.453125 -0.1875 C 3.316406 -0.0625 3.148438 0 2.953125 0 Z M 0.75 0 "/></g></g></g><g fill="#ffffff" fill-opacity="1"><g transform="translate(292.776688, 195.674764)"><g><path d="M 6.359375 0.265625 C 5.066406 0.265625 3.988281 0.0078125 3.125 -0.5 C 2.269531 -1.019531 1.675781 -1.765625 1.34375 -2.734375 C 1.019531 -3.710938 0.972656 -4.894531 1.203125 -6.28125 C 1.234375 -6.457031 1.273438 -6.679688 1.328125 -6.953125 C 1.378906 -7.234375 1.429688 -7.457031 1.484375 -7.625 C 1.847656 -8.96875 2.398438 -10.125 3.140625 -11.09375 C 3.890625 -12.0625 4.800781 -12.804688 5.875 -13.328125 C 6.945312 -13.859375 8.132812 -14.125 9.4375 -14.125 C 10.875 -14.125 12.007812 -13.820312 12.84375 -13.21875 C 13.675781 -12.625 14.226562 -11.800781 14.5 -10.75 C 14.78125 -9.695312 14.785156 -8.476562 14.515625 -7.09375 L 14.390625 -6.53125 C 14.347656 -6.351562 14.25 -6.203125 14.09375 -6.078125 C 13.945312 -5.953125 13.78125 -5.890625 13.59375 -5.890625 L 4.734375 -5.890625 C 4.734375 -5.890625 4.726562 -5.863281 4.71875 -5.8125 C 4.71875 -5.757812 4.707031 -5.710938 4.6875 -5.671875 C 4.601562 -5.046875 4.613281 -4.472656 4.71875 -3.953125 C 4.820312 -3.429688 5.054688 -3.007812 5.421875 -2.6875 C 5.785156 -2.375 6.269531 -2.21875 6.875 -2.21875 C 7.375 -2.21875 7.804688 -2.289062 8.171875 -2.4375 C 8.546875 -2.59375 8.851562 -2.765625 9.09375 -2.953125 C 9.332031 -3.148438 9.515625 -3.3125 9.640625 -3.4375 C 9.859375 -3.644531 10.019531 -3.769531 10.125 -3.8125 C 10.226562 -3.863281 10.378906 -3.890625 10.578125 -3.890625 L 12.890625 -3.890625 C 13.054688 -3.890625 13.179688 -3.832031 13.265625 -3.71875 C 13.359375 -3.613281 13.382812 -3.484375 13.34375 -3.328125 C 13.257812 -3.046875 13.035156 -2.695312 12.671875 -2.28125 C 12.316406 -1.875 11.835938 -1.472656 11.234375 -1.078125 C 10.640625 -0.691406 9.925781 -0.367188 9.09375 -0.109375 C 8.269531 0.140625 7.359375 0.265625 6.359375 0.265625 Z M 5.21875 -8.125 L 11.109375 -8.125 L 11.140625 -8.203125 C 11.316406 -8.898438 11.335938 -9.507812 11.203125 -10.03125 C 11.066406 -10.550781 10.804688 -10.957031 10.421875 -11.25 C 10.046875 -11.539062 9.546875 -11.6875 8.921875 -11.6875 C 8.304688 -11.6875 7.75 -11.539062 7.25 -11.25 C 6.75 -10.957031 6.328125 -10.550781 5.984375 -10.03125 C 5.648438 -9.507812 5.40625 -8.898438 5.25 -8.203125 Z M 5.21875 -8.125 "/></g></g></g><g fill="#ffffff" fill-opacity="1"><g transform="translate(308.094091, 195.674764)"><g><path d="M 0.75 0 C 0.570312 0 0.429688 -0.0625 0.328125 -0.1875 C 0.234375 -0.3125 0.203125 -0.460938 0.234375 -0.640625 L 2.90625 -13.21875 C 2.9375 -13.394531 3.023438 -13.546875 3.171875 -13.671875 C 3.328125 -13.796875 3.492188 -13.859375 3.671875 -13.859375 L 5.859375 -13.859375 C 6.035156 -13.859375 6.164062 -13.796875 6.25 -13.671875 C 6.34375 -13.546875 6.375 -13.394531 6.34375 -13.21875 L 6.09375 -12.125 C 6.664062 -12.6875 7.335938 -13.160156 8.109375 -13.546875 C 8.878906 -13.929688 9.753906 -14.125 10.734375 -14.125 C 11.941406 -14.125 12.910156 -13.878906 13.640625 -13.390625 C 14.367188 -12.898438 14.851562 -12.207031 15.09375 -11.3125 C 15.332031 -10.425781 15.316406 -9.363281 15.046875 -8.125 L 13.453125 -0.640625 C 13.421875 -0.460938 13.332031 -0.3125 13.1875 -0.1875 C 13.039062 -0.0625 12.875 0 12.6875 0 L 10.34375 0 C 10.15625 0 10.015625 -0.0625 9.921875 -0.1875 C 9.828125 -0.3125 9.796875 -0.460938 9.828125 -0.640625 L 11.375 -7.96875 C 11.601562 -9.050781 11.578125 -9.867188 11.296875 -10.421875 C 11.023438 -10.984375 10.375 -11.265625 9.34375 -11.265625 C 8.332031 -11.265625 7.476562 -10.972656 6.78125 -10.390625 C 6.082031 -9.804688 5.613281 -9 5.375 -7.96875 L 3.84375 -0.640625 C 3.800781 -0.460938 3.707031 -0.3125 3.5625 -0.1875 C 3.425781 -0.0625 3.269531 0 3.09375 0 Z M 0.75 0 "/></g></g></g><g fill="#ffffff" fill-opacity="1"><g transform="translate(324.7168, 195.674764)"><g><path d="M 6.1875 0.265625 C 4.988281 0.265625 3.941406 0.0234375 3.046875 -0.453125 C 2.148438 -0.929688 1.488281 -1.628906 1.0625 -2.546875 C 0.632812 -3.460938 0.535156 -4.566406 0.765625 -5.859375 C 0.828125 -6.128906 0.898438 -6.476562 0.984375 -6.90625 C 1.078125 -7.34375 1.15625 -7.707031 1.21875 -8 C 1.695312 -9.925781 2.582031 -11.425781 3.875 -12.5 C 5.175781 -13.582031 6.832031 -14.125 8.84375 -14.125 C 9.957031 -14.125 10.890625 -13.960938 11.640625 -13.640625 C 12.398438 -13.316406 13 -12.90625 13.4375 -12.40625 C 13.875 -11.914062 14.175781 -11.398438 14.34375 -10.859375 C 14.507812 -10.328125 14.566406 -9.851562 14.515625 -9.4375 C 14.503906 -9.238281 14.429688 -9.082031 14.296875 -8.96875 C 14.160156 -8.851562 14.003906 -8.796875 13.828125 -8.796875 L 11.40625 -8.796875 C 11.226562 -8.796875 11.085938 -8.835938 10.984375 -8.921875 C 10.890625 -9.015625 10.832031 -9.148438 10.8125 -9.328125 C 10.8125 -10.035156 10.617188 -10.546875 10.234375 -10.859375 C 9.859375 -11.179688 9.316406 -11.34375 8.609375 -11.34375 C 7.734375 -11.34375 6.953125 -11.0625 6.265625 -10.5 C 5.585938 -9.945312 5.097656 -9.066406 4.796875 -7.859375 C 4.722656 -7.535156 4.648438 -7.203125 4.578125 -6.859375 C 4.503906 -6.523438 4.441406 -6.238281 4.390625 -6 C 4.203125 -4.769531 4.289062 -3.878906 4.65625 -3.328125 C 5.03125 -2.773438 5.65625 -2.5 6.53125 -2.5 C 7.21875 -2.5 7.835938 -2.644531 8.390625 -2.9375 C 8.941406 -3.238281 9.40625 -3.742188 9.78125 -4.453125 C 9.882812 -4.640625 9.992188 -4.773438 10.109375 -4.859375 C 10.222656 -4.941406 10.367188 -4.984375 10.546875 -4.984375 L 12.953125 -4.984375 C 13.128906 -4.984375 13.265625 -4.925781 13.359375 -4.8125 C 13.453125 -4.695312 13.472656 -4.539062 13.421875 -4.34375 C 13.296875 -3.945312 13.066406 -3.488281 12.734375 -2.96875 C 12.410156 -2.445312 11.960938 -1.9375 11.390625 -1.4375 C 10.828125 -0.9375 10.113281 -0.523438 9.25 -0.203125 C 8.394531 0.109375 7.375 0.265625 6.1875 0.265625 Z M 6.1875 0.265625 "/></g></g></g><g fill="#ffffff" fill-opacity="1"><g transform="translate(339.901039, 195.674764)"><g><path d="M 6.359375 0.265625 C 5.066406 0.265625 3.988281 0.0078125 3.125 -0.5 C 2.269531 -1.019531 1.675781 -1.765625 1.34375 -2.734375 C 1.019531 -3.710938 0.972656 -4.894531 1.203125 -6.28125 C 1.234375 -6.457031 1.273438 -6.679688 1.328125 -6.953125 C 1.378906 -7.234375 1.429688 -7.457031 1.484375 -7.625 C 1.847656 -8.96875 2.398438 -10.125 3.140625 -11.09375 C 3.890625 -12.0625 4.800781 -12.804688 5.875 -13.328125 C 6.945312 -13.859375 8.132812 -14.125 9.4375 -14.125 C 10.875 -14.125 12.007812 -13.820312 12.84375 -13.21875 C 13.675781 -12.625 14.226562 -11.800781 14.5 -10.75 C 14.78125 -9.695312 14.785156 -8.476562 14.515625 -7.09375 L 14.390625 -6.53125 C 14.347656 -6.351562 14.25 -6.203125 14.09375 -6.078125 C 13.945312 -5.953125 13.78125 -5.890625 13.59375 -5.890625 L 4.734375 -5.890625 C 4.734375 -5.890625 4.726562 -5.863281 4.71875 -5.8125 C 4.71875 -5.757812 4.707031 -5.710938 4.6875 -5.671875 C 4.601562 -5.046875 4.613281 -4.472656 4.71875 -3.953125 C 4.820312 -3.429688 5.054688 -3.007812 5.421875 -2.6875 C 5.785156 -2.375 6.269531 -2.21875 6.875 -2.21875 C 7.375 -2.21875 7.804688 -2.289062 8.171875 -2.4375 C 8.546875 -2.59375 8.851562 -2.765625 9.09375 -2.953125 C 9.332031 -3.148438 9.515625 -3.3125 9.640625 -3.4375 C 9.859375 -3.644531 10.019531 -3.769531 10.125 -3.8125 C 10.226562 -3.863281 10.378906 -3.890625 10.578125 -3.890625 L 12.890625 -3.890625 C 13.054688 -3.890625 13.179688 -3.832031 13.265625 -3.71875 C 13.359375 -3.613281 13.382812 -3.484375 13.34375 -3.328125 C 13.257812 -3.046875 13.035156 -2.695312 12.671875 -2.28125 C 12.316406 -1.875 11.835938 -1.472656 11.234375 -1.078125 C 10.640625 -0.691406 9.925781 -0.367188 9.09375 -0.109375 C 8.269531 0.140625 7.359375 0.265625 6.359375 0.265625 Z M 5.21875 -8.125 L 11.109375 -8.125 L 11.140625 -8.203125 C 11.316406 -8.898438 11.335938 -9.507812 11.203125 -10.03125 C 11.066406 -10.550781 10.804688 -10.957031 10.421875 -11.25 C 10.046875 -11.539062 9.546875 -11.6875 8.921875 -11.6875 C 8.304688 -11.6875 7.75 -11.539062 7.25 -11.25 C 6.75 -10.957031 6.328125 -10.550781 5.984375 -10.03125 C 5.648438 -9.507812 5.40625 -8.898438 5.25 -8.203125 Z M 5.21875 -8.125 "/></g></g></g></svg>